<svg width="106" height="52" viewBox="0 0 106 52" fill="none" xmlns="http://www.w3.org/2000/svg">
<path d="M26.0917 51C39.9494 51 51.1833 39.8071 51.1833 26C51.1833 12.1929 39.9494 1 26.0917 1C12.2339 1 1 12.1929 1 26C1 39.8071 12.2339 51 26.0917 51Z" fill="#306A42" fill-opacity="0.1" stroke="url(#paint0_linear_88_43)" stroke-width="2"/>
<path d="M29.0394 24.2807C29.0394 22.6587 27.7197 21.3438 26.0917 21.3438C24.4637 21.3438 23.1439 22.6587 23.1439 24.2807V44.0515C23.1439 45.6735 24.4637 46.9884 26.0917 46.9884C27.7197 46.9884 29.0394 45.6735 29.0394 44.0515V24.2807Z" fill="url(#paint1_linear_88_43)"/>
<path d="M15.6668 12.8194C15.6668 11.1974 14.347 9.88245 12.719 9.88245C11.091 9.88245 9.7713 11.1974 9.7713 12.8194V39.1804C9.7713 40.8025 11.091 42.1174 12.719 42.1174C14.347 42.1174 15.6668 40.8025 15.6668 39.1804V12.8194Z" fill="url(#paint2_linear_88_43)"/>
<path d="M42.8434 12.8194C42.8434 11.1974 41.5237 9.88245 39.8957 9.88245C38.2677 9.88245 36.9479 11.1974 36.9479 12.8194V23.5644C36.9479 25.1864 38.2677 26.5014 39.8957 26.5014C41.5237 26.5014 42.8434 25.1864 42.8434 23.5644V12.8194Z" fill="url(#paint3_linear_88_43)"/>
<path d="M11.8563 20.6275C10.2283 20.6275 8.90854 21.9425 8.90854 23.5645C8.90854 25.1865 10.2283 26.5015 11.8563 26.5015L40.327 26.5015C41.955 26.5015 43.2748 25.1865 43.2748 23.5645C43.2748 21.9425 41.955 20.6275 40.327 20.6275H11.8563Z" fill="url(#paint4_linear_88_43)"/>
<path d="M14.7303 10.5266C13.5791 9.37969 11.7127 9.37969 10.5615 10.5266C9.41037 11.6736 9.41037 13.5332 10.5615 14.6801L24.1489 28.2179C25.3001 29.3648 27.1665 29.3648 28.3176 28.2179C29.4688 27.0709 29.4688 25.2114 28.3176 24.0644L14.7303 10.5266Z" fill="url(#paint5_linear_88_43)"/>
<path d="M24.0779 24.0644C22.9267 25.2114 22.9267 27.071 24.0779 28.2179C25.2291 29.3649 27.0955 29.3649 28.2466 28.2179L41.834 14.6802C42.9852 13.5332 42.9852 11.6736 41.834 10.5267C40.6829 9.37973 38.8165 9.37973 37.6653 10.5267L24.0779 24.0644Z" fill="url(#paint6_linear_88_43)"/>
<path d="M45.6203 36.0734C45.6203 36.766 45.4886 37.4167 45.2249 38.0256C44.9613 38.6344 44.6018 39.1687 44.1464 39.6283C43.6972 40.082 43.1669 40.443 42.5558 40.7118C41.9447 40.9744 41.2916 41.1086 40.5967 41.1147H37.7658C37.0707 41.1086 36.4176 40.9744 35.8065 40.7118C35.1954 40.443 34.6622 40.082 34.207 39.6283C33.7575 39.1687 33.401 38.6344 33.1375 38.0256C32.8739 37.4167 32.742 36.766 32.742 36.0734C32.742 35.381 32.8739 34.7304 33.1375 34.1215C33.401 33.5066 33.7575 32.9724 34.207 32.5187C34.6622 32.0591 35.1954 31.6979 35.8065 31.4353C36.4176 31.1665 37.0707 31.0323 37.7658 31.0323H40.5967C41.0579 31.0323 41.5044 31.092 41.9358 31.2114C42.3672 31.3307 42.7685 31.5009 43.1399 31.7218C43.5115 31.9426 43.8499 32.2082 44.1555 32.5187C44.4611 32.8231 44.7216 33.1634 44.9373 33.5395C45.153 33.9095 45.3208 34.3095 45.4406 34.7393C45.5605 35.1691 45.6203 35.6138 45.6203 36.0734ZM43.787 36.0734C43.787 35.6317 43.7031 35.2168 43.5353 34.8288C43.3677 34.4409 43.1399 34.1035 42.8523 33.817C42.5647 33.5246 42.2263 33.2948 41.8369 33.1276C41.4534 32.9545 41.04 32.865 40.5967 32.8589H37.7658C37.3224 32.865 36.906 32.9545 36.5166 33.1276C36.1331 33.2948 35.7976 33.5246 35.51 33.817C35.2224 34.1035 34.9948 34.4409 34.827 34.8288C34.6652 35.2168 34.5843 35.6317 34.5843 36.0734C34.5843 36.5152 34.6652 36.9301 34.827 37.3181C34.9948 37.7061 35.2224 38.0463 35.51 38.3389C35.7976 38.6254 36.1331 38.8552 36.5166 39.0284C36.906 39.1955 37.3224 39.2791 37.7658 39.2791H40.5967C41.04 39.2791 41.4534 39.1955 41.8369 39.0284C42.2263 38.8552 42.5647 38.6254 42.8523 38.3389C43.1399 38.0463 43.3677 37.7061 43.5353 37.3181C43.7031 36.9301 43.787 36.5152 43.787 36.0734ZM59.3974 41.1147H52.4954C51.8005 41.1147 51.1474 40.9833 50.5363 40.7207C49.9251 40.4521 49.392 40.0909 48.9366 39.6373C48.4872 39.1776 48.1308 38.6433 47.8672 38.0344C47.6035 37.4195 47.4718 36.766 47.4718 36.0734V31.0323H49.314V36.0734C49.314 36.5152 49.3948 36.9301 49.5568 37.3181C49.7244 37.7002 49.9522 38.0374 50.2398 38.3299C50.5273 38.6164 50.8628 38.8463 51.2463 39.0194C51.6357 39.1866 52.0521 39.2731 52.4954 39.2791H57.555V31.0323H59.3974V41.1147ZM72.105 32.8589H65.203C65.0114 32.8589 64.8316 32.8978 64.6638 32.9754C64.496 33.047 64.3492 33.1455 64.2235 33.2708C64.0976 33.3962 63.9988 33.5425 63.9269 33.7095C63.855 33.8767 63.819 34.0528 63.819 34.2379V41.1147H61.9766V34.2379C61.9766 33.7902 62.0606 33.3723 62.2283 32.9843C62.3961 32.5963 62.6267 32.2591 62.9203 31.9725C63.214 31.68 63.5555 31.4502 63.9448 31.283C64.3342 31.1158 64.7537 31.0323 65.203 31.0323H72.105V32.8589ZM75.8885 28.74C75.8885 28.931 75.8525 29.1101 75.7806 29.2773C75.7087 29.4384 75.61 29.5817 75.4841 29.7071C75.3583 29.8324 75.2115 29.931 75.0438 30.0026C74.876 30.0743 74.6993 30.1101 74.5135 30.1101C74.3219 30.1101 74.1421 30.0743 73.9743 30.0026C73.8065 29.931 73.6597 29.8324 73.534 29.7071C73.4081 29.5817 73.3093 29.4384 73.2374 29.2773C73.1655 29.1101 73.1295 28.931 73.1295 28.74C73.1295 28.5549 73.1655 28.3788 73.2374 28.2118C73.3093 28.0446 73.4081 27.8983 73.534 27.773C73.6597 27.6476 73.8065 27.549 73.9743 27.4774C74.1421 27.3999 74.3219 27.3611 74.5135 27.3611C74.6993 27.3611 74.876 27.3999 75.0438 27.4774C75.2115 27.549 75.3583 27.6476 75.4841 27.773C75.61 27.8983 75.7087 28.0446 75.7806 28.2118C75.8525 28.3788 75.8885 28.5549 75.8885 28.74ZM75.4302 41.1147H73.5878V31.0323H75.4302V41.1147ZM88.65 37.9091C88.65 38.3508 88.5662 38.7687 88.3984 39.1627C88.2307 39.5506 88.0001 39.8909 87.7064 40.1834C87.4189 40.47 87.0773 40.6968 86.6819 40.8639C86.2925 41.0311 85.8761 41.1147 85.4328 41.1147H77.6051V39.2791H85.4328C85.6184 39.2791 85.7952 39.2433 85.963 39.1717C86.1308 39.1 86.2774 39.0015 86.4034 38.8761C86.5291 38.7508 86.628 38.6075 86.6999 38.4463C86.7718 38.2791 86.8077 38.1001 86.8077 37.9091C86.8077 37.724 86.7718 37.5479 86.6999 37.3809C86.628 37.2137 86.5291 37.0674 86.4034 36.942C86.2774 36.8167 86.1308 36.7181 85.963 36.6465C85.7952 36.569 85.6184 36.5301 85.4328 36.5301H80.3641C79.9806 36.5301 79.6212 36.4585 79.2857 36.3152C78.9501 36.172 78.6565 35.978 78.4048 35.7333C78.1592 35.4826 77.9645 35.19 77.8208 34.8556C77.677 34.5214 77.6051 34.1632 77.6051 33.7811C77.6051 33.3992 77.677 33.041 77.8208 32.7066C77.9645 32.3724 78.1592 32.0829 78.4048 31.8382C78.6565 31.5874 78.9501 31.3905 79.2857 31.2472C79.6212 31.1039 79.9806 31.0323 80.3641 31.0323H87.7335V32.8589H80.3641C80.1065 32.8589 79.8878 32.9485 79.708 33.1276C79.5343 33.3006 79.4473 33.5185 79.4473 33.7811C79.4473 34.0379 79.5343 34.2558 79.708 34.4349C79.8878 34.6079 80.1065 34.6946 80.3641 34.6946H85.4328C85.8761 34.6946 86.2925 34.7781 86.6819 34.9453C87.0773 35.1124 87.4189 35.3422 87.7064 35.6347C88.0001 35.9273 88.2307 36.2675 88.3984 36.6555C88.5662 37.0435 88.65 37.4614 88.65 37.9091ZM92.3797 41.1147H90.5374V31.0323H100.243C100.938 31.0323 101.591 31.1665 102.202 31.4353C102.813 31.6979 103.344 32.0591 103.793 32.5187C104.249 32.9724 104.608 33.5066 104.872 34.1215C105.135 34.7304 105.267 35.381 105.267 36.0734V41.1147H103.425V36.0734C103.425 35.6317 103.341 35.2168 103.173 34.8288C103.005 34.4409 102.778 34.1035 102.49 33.817C102.202 33.5246 101.864 33.2948 101.474 33.1276C101.091 32.9545 100.681 32.865 100.243 32.8589H98.8233V41.1147H96.981V32.8589H92.3797V41.1147Z" fill="#EFEFEF"/>
<path d="M48.2086 22.078C49.1193 21.2542 50.0031 20.6423 50.8598 20.2423C51.7165 19.8425 52.3785 19.6425 52.8459 19.6425C52.9718 19.6425 53.0886 19.6962 53.1964 19.8037C53.3043 19.9051 53.3881 20.0246 53.4481 20.1618C53.5139 20.2991 53.547 20.4006 53.547 20.4663C53.547 20.5737 53.505 20.6544 53.421 20.708C53.3372 20.7558 53.1904 20.8154 52.9807 20.887C53.0227 20.9826 53.0766 21.1049 53.1425 21.2542C53.2084 21.4035 53.2594 21.5259 53.2953 21.6214C53.3313 21.7108 53.3491 21.7915 53.3491 21.8631C53.3491 22.0064 53.2025 22.275 52.9088 22.669C52.6212 23.0569 52.4175 23.3435 52.2977 23.5286C52.1838 23.7137 52.1269 23.9405 52.1269 24.2091C52.1269 24.6508 52.3306 24.8717 52.738 24.8717C53.1575 24.8717 53.8136 24.4807 54.7062 23.6988V24.2449C53.1904 25.9223 52.106 26.761 51.4529 26.761C51.2193 26.761 51.0515 26.6835 50.9497 26.5283C50.8538 26.379 50.8059 26.1551 50.8059 25.8567C50.8059 25.385 50.9766 24.7016 51.3182 23.8062C50.4434 24.7733 49.7933 25.4627 49.368 25.8746C48.9426 26.2804 48.5921 26.4835 48.3164 26.4835C48.1847 26.4835 48.0199 26.37 47.8222 26.1432C47.6245 25.9164 47.4478 25.6239 47.292 25.2657C47.1422 24.9015 47.0673 24.5254 47.0673 24.1375C47.0673 23.8569 47.0942 23.6241 47.1482 23.439C47.202 23.2481 47.307 23.0541 47.4627 22.8569C47.6184 22.6601 47.8672 22.4004 48.2086 22.078ZM52.5134 21.0931C50.9557 21.8034 49.8443 22.4064 49.1792 22.9018C48.5202 23.3972 48.1907 23.9077 48.1907 24.4329C48.1907 24.624 48.2237 24.7822 48.2895 24.9075C48.3554 25.0269 48.4452 25.0866 48.5591 25.0866C48.625 25.0866 48.7419 25.0448 48.9097 24.9612C49.5386 24.5912 50.1138 24.1105 50.6352 23.5197C51.1563 22.9227 51.7825 22.1138 52.5134 21.0931ZM60.6916 22.0601C59.6371 23.2302 59.1099 24.0449 59.1099 24.5045C59.1099 24.7612 59.2147 24.8896 59.4243 24.8896C59.5982 24.8896 59.8228 24.8001 60.0984 24.621C60.38 24.4359 60.8174 24.1105 61.4105 23.6449V24.2628C60.5597 25.0985 59.9067 25.7015 59.4514 26.0716C58.996 26.4416 58.6246 26.6267 58.337 26.6267C57.8456 26.6267 57.6 26.3044 57.6 25.6597C57.6 25.4687 57.6299 25.2806 57.6899 25.0956C57.7499 24.9105 57.8307 24.7194 57.9326 24.5226C58.0405 24.3196 58.2021 24.033 58.4178 23.663C58.6335 23.2867 58.8822 22.863 59.1638 22.3913C58.8223 22.5645 58.3939 22.9078 57.8786 23.4211C57.5431 23.7435 57.2585 24.0509 57.0249 24.3435C56.7912 24.63 56.5396 24.9524 56.27 25.3105C56.0064 25.6627 55.8117 25.9014 55.6857 26.0269C55.566 26.1462 55.4432 26.2059 55.3173 26.2059C55.1257 26.2059 54.949 26.0059 54.787 25.6059C54.6254 25.2059 54.5445 24.7403 54.5445 24.2091C54.5445 23.8807 54.5804 23.6241 54.6523 23.439C54.7302 23.2539 54.8799 22.9913 55.1017 22.6511C55.5151 22.0183 55.8715 21.5557 56.1712 21.2633C56.4707 20.9647 56.7583 20.8154 57.0339 20.8154C57.2256 20.8154 57.3783 20.8484 57.4922 20.914C57.612 20.9796 57.6719 21.0812 57.6719 21.2184C57.6719 21.2782 57.654 21.3408 57.618 21.4065C57.5821 21.4721 57.5401 21.5317 57.4922 21.5856C57.4502 21.6392 57.3575 21.7438 57.2137 21.8989C56.2669 22.9436 55.7936 23.6211 55.7936 23.9314C55.7936 24.1047 55.8505 24.1912 55.9644 24.1912C56.0363 24.1912 56.1741 24.0777 56.3778 23.8509C56.5875 23.6181 56.8542 23.3167 57.1777 22.9466C57.5071 22.5704 57.8937 22.1794 58.337 21.7736C58.7863 21.3677 59.2956 20.9767 59.8648 20.6005C60.1823 20.3797 60.446 20.2693 60.6556 20.2693C60.7515 20.2693 60.8444 20.4006 60.9341 20.6633C61.0301 20.9259 61.0779 21.1916 61.0779 21.4601C61.0779 21.5915 60.9492 21.7915 60.6916 22.0601ZM65.0413 19.6783C64.8914 19.6783 64.7476 19.6216 64.6099 19.5082C64.478 19.3948 64.4122 19.2515 64.4122 19.0784C64.4122 18.8157 64.538 18.5231 64.7896 18.2008C65.0413 17.8784 65.302 17.7174 65.5714 17.7174C65.7512 17.7174 65.901 17.774 66.0209 17.8875C66.1407 17.9949 66.2007 18.1531 66.2007 18.3621C66.2007 18.6187 66.0777 18.9022 65.8321 19.2127C65.5865 19.5231 65.3228 19.6783 65.0413 19.6783ZM65.6524 23.6807V24.3345C65.0712 25.0806 64.5289 25.6448 64.0257 26.0269C63.5224 26.4028 63.094 26.5909 62.7406 26.5909C62.2493 26.5909 61.8839 26.3342 61.6442 25.8208C61.4045 25.3075 61.2847 24.7463 61.2847 24.1375C61.2847 23.9047 61.3087 23.6837 61.3566 23.4749C61.4045 23.26 61.4614 23.0839 61.5274 22.9466C61.5933 22.8092 61.7161 22.5943 61.8958 22.3019C62.7466 20.9826 63.5254 20.323 64.2324 20.323C64.598 20.323 64.7806 20.4633 64.7806 20.7438C64.7806 20.9349 64.6608 21.2333 64.4211 21.6392C64.1876 22.0452 63.9778 22.3347 63.7921 22.5078C63.2708 23.0092 62.9294 23.3584 62.7675 23.5555C62.6118 23.7524 62.534 23.9763 62.534 24.227C62.534 24.4419 62.6148 24.621 62.7765 24.7643C62.9383 24.9075 63.148 24.9792 63.4056 24.9792C63.6872 24.9792 63.9958 24.8777 64.3314 24.6747C64.6727 24.4658 65.1132 24.1345 65.6524 23.6807ZM65.4726 24.4329V23.8062C66.3114 22.8988 67.0334 22.0452 67.6386 21.2452C68.2497 20.4453 68.732 19.8097 69.0854 19.338C69.4388 18.8664 69.7504 18.5352 70.0201 18.3441C70.2897 18.1472 70.6282 18.0486 71.0355 18.0486C71.2393 18.0486 71.3412 18.1263 71.3412 18.2814C71.3412 18.4068 71.2572 18.5919 71.0896 18.8366C70.9277 19.0813 70.718 19.332 70.4603 19.5888C70.119 19.923 69.7834 20.3439 69.4538 20.8512C69.1303 21.3526 68.7619 21.9945 68.3485 22.7764C68.672 22.5257 69.0434 22.2303 69.4629 21.8899C69.8882 21.5438 70.2327 21.2751 70.4963 21.0842C70.766 20.887 71.0296 20.7319 71.2871 20.6186C71.5509 20.5051 71.8144 20.4484 72.078 20.4484C72.2458 20.4484 72.3537 20.4782 72.4015 20.5379C72.4556 20.5976 72.4825 20.714 72.4825 20.887C72.4825 21.3408 72.3716 21.7855 72.1499 22.2213C71.9283 22.6511 71.6107 23.0988 71.1974 23.5644C70.7839 24.03 70.2747 24.5375 69.6695 25.0866C69.8793 25.1643 70.095 25.2031 70.3166 25.2031C71.0116 25.2031 71.9433 24.6747 73.1116 23.6181V24.2628C72.6562 24.6687 72.2099 25.0508 71.7726 25.409C71.3412 25.7671 70.9337 26.0537 70.5504 26.2686C70.1669 26.4835 69.8133 26.5909 69.4898 26.5909C69.37 26.5909 69.2411 26.576 69.1034 26.5461C68.9715 26.5223 68.8487 26.4925 68.7348 26.4567C68.6211 26.4148 68.4743 26.3581 68.2946 26.2865C68.1148 26.2148 67.9771 26.1641 67.8812 26.1343C67.6895 26.182 67.5816 26.2059 67.5576 26.2059C67.348 26.2059 67.1022 26.1223 66.8207 25.9552C66.623 26.3372 66.4043 26.8297 66.1647 27.4326C65.9309 28.0415 65.7333 28.525 65.5714 28.8832C65.4098 29.2413 65.1941 29.5846 64.9244 29.9128C64.7747 30.0621 64.6698 30.1367 64.6099 30.1367C64.3522 30.1367 64.2235 29.91 64.2235 29.4562C64.2235 29.0623 64.3043 28.6504 64.4661 28.2206C64.6218 27.7968 64.8165 27.3938 65.0503 27.0117C65.2779 26.6297 65.5296 26.2446 65.8052 25.8567C66.0807 25.4627 66.2754 25.1701 66.3893 24.9792C67.3359 23.3555 68.0728 21.9736 68.6001 20.8335C67.2222 22.5048 66.1797 23.7047 65.4726 24.4329ZM69.1214 24.8717C69.7145 24.2509 70.1549 23.7226 70.4425 23.2867C70.736 22.8511 70.8828 22.5168 70.8828 22.2839C70.8828 22.0631 70.7719 21.9527 70.5504 21.9527C70.2507 21.9527 69.8284 22.2004 69.2831 22.6959C68.7439 23.1853 68.1867 23.8479 67.6115 24.6836C68.0549 24.6359 68.3515 24.621 68.5013 24.6389C68.651 24.6508 68.8578 24.7284 69.1214 24.8717ZM77.2905 23.0718C76.4218 24.218 75.7598 25.0329 75.3044 25.5164C74.8551 25.9999 74.4865 26.2418 74.1989 26.2418C73.9713 26.2418 73.7617 26.1492 73.57 25.9641C73.3782 25.7731 73.2283 25.5194 73.1205 25.2031C73.0187 24.8807 72.9678 24.5375 72.9678 24.1733C72.9678 23.9345 72.9888 23.7196 73.0308 23.5286C73.0786 23.3376 73.1655 23.1286 73.2913 22.9018C73.4171 22.669 73.5819 22.4183 73.7857 22.1496C73.9953 21.881 74.25 21.5766 74.5495 21.2363C74.7292 21.0274 74.8791 20.8512 74.9988 20.708C75.1247 20.5647 75.2444 20.4693 75.3583 20.4214C75.4781 20.3678 75.6699 20.3409 75.9335 20.3409C76.1252 20.3409 76.3079 20.3678 76.4818 20.4214C76.6555 20.4693 76.7423 20.52 76.7423 20.5737C76.7423 20.6812 76.6525 20.8751 76.4727 21.1558C76.299 21.4363 76.0144 21.7796 75.619 22.1855C75.2295 22.5855 74.7771 22.9794 74.2619 23.3674C74.148 23.7196 74.0911 23.9882 74.0911 24.1733C74.0911 24.43 74.19 24.5584 74.3877 24.5584C74.4596 24.5584 74.5794 24.4986 74.7472 24.3793C74.915 24.2538 75.1966 24.0181 75.592 23.6718C75.9935 23.3197 76.3529 23.0092 76.6704 22.7406C76.9041 22.5376 77.1737 22.2362 77.4793 21.8363C77.7908 21.4303 78.0425 21.1259 78.2342 20.9229C78.6775 20.4572 78.98 20.1558 79.1419 20.0186C79.3035 19.8753 79.4594 19.8037 79.6092 19.8037C79.753 19.8037 79.8488 19.8484 79.8968 19.938C79.9506 20.0274 79.9776 20.2095 79.9776 20.4842C79.9776 20.6095 79.9657 20.711 79.9417 20.7886C79.9177 20.8663 79.8668 20.9677 79.789 21.0931C79.7171 21.2124 79.5673 21.4363 79.3395 21.7647C79.1119 22.0929 78.8423 22.481 78.5308 22.9286C78.363 23.1674 78.2162 23.43 78.0904 23.7165C77.9646 23.9972 77.9016 24.2091 77.9016 24.3524C77.9016 24.6628 78.0245 24.818 78.2701 24.818C78.4739 24.818 78.7105 24.7345 78.98 24.5673C79.2498 24.4001 79.663 24.0986 80.2204 23.663V24.2628C79.5192 24.9075 79.001 25.3761 78.6655 25.6687C78.3301 25.9611 78.0395 26.182 77.7937 26.3312C77.5481 26.4804 77.3145 26.5551 77.0929 26.5551C76.5896 26.5551 76.338 26.2567 76.338 25.6597C76.338 25.4329 76.4127 25.1284 76.5626 24.7463C76.7124 24.3584 76.955 23.8002 77.2905 23.0718ZM80.0495 24.3703V23.7882C80.3731 23.4062 80.6187 23.0809 80.7865 22.8122C80.5948 22.7466 80.4539 22.666 80.3641 22.5704C80.2802 22.475 80.2382 22.3317 80.2382 22.1406C80.2382 21.9257 80.3282 21.6542 80.5079 21.3259C80.6877 20.9975 80.9093 20.6902 81.1728 20.4037C81.4365 20.1171 81.6761 19.932 81.8918 19.8484C81.9758 19.8067 82.0566 19.7857 82.1345 19.7857C82.2543 19.7857 82.3143 19.8425 82.3143 19.9558C82.3143 20.0574 82.2214 20.2633 82.0356 20.5737C83.2699 20.3827 84.0487 20.2872 84.3722 20.2872C84.4982 20.2872 84.585 20.2991 84.6329 20.323C84.7347 20.3767 84.8187 20.5021 84.8845 20.6991C84.9504 20.8961 84.9833 21.0931 84.9833 21.29C84.9833 21.4154 84.9265 21.5527 84.8126 21.7019C84.7048 21.8452 84.516 22.0571 84.2465 22.3378C83.9289 22.6779 83.6623 23.0481 83.4466 23.4481C83.2309 23.8479 83.1231 24.1494 83.1231 24.3524C83.1231 24.6329 83.2968 24.7733 83.6443 24.7733C84.0098 24.7733 84.6448 24.4031 85.5496 23.663V24.2628C85.0523 24.7822 84.642 25.191 84.3184 25.4896C83.9949 25.788 83.6952 26.0269 83.4197 26.2059C83.1441 26.379 82.8983 26.4655 82.6826 26.4655C82.431 26.4655 82.2214 26.3521 82.0537 26.1253C81.8859 25.8925 81.8021 25.5582 81.8021 25.1224C81.8021 24.8657 81.8679 24.5733 81.9996 24.2449C82.1315 23.9165 82.3232 23.5614 82.5748 23.1793C82.8325 22.7913 83.1201 22.4064 83.4376 22.0243C83.2699 22.0601 83.0811 22.0989 82.8714 22.1406C82.6618 22.1764 82.4401 22.2153 82.2064 22.2571C81.9727 22.2989 81.793 22.3317 81.6672 22.3555C81.2958 23.0958 80.7566 23.7674 80.0495 24.3703Z" fill="#FFB72B"/>
<defs>
<linearGradient id="paint0_linear_88_43" x1="0.856208" y1="24.3524" x2="51.327" y2="23.6308" gradientUnits="userSpaceOnUse">
<stop offset="0.171667" stop-color="#004816"/>
<stop offset="0.741667" stop-color="#00AE35"/>
</linearGradient>
<linearGradient id="paint1_linear_88_43" x1="26.0917" y1="21.3438" x2="26.0917" y2="46.9884" gradientUnits="userSpaceOnUse">
<stop stop-color="#53C1FF"/>
<stop offset="0.5" stop-color="#3BF058"/>
<stop offset="1" stop-color="#C8FF2D"/>
</linearGradient>
<linearGradient id="paint2_linear_88_43" x1="12.6471" y1="25.0687" x2="12.7185" y2="42.1174" gradientUnits="userSpaceOnUse">
<stop offset="0.0566666" stop-color="#004816"/>
<stop offset="1" stop-color="#00AE35"/>
</linearGradient>
<linearGradient id="paint3_linear_88_43" x1="39.8238" y1="17.7118" x2="39.8428" y2="26.5015" gradientUnits="userSpaceOnUse">
<stop offset="0.236667" stop-color="#004816"/>
<stop offset="1" stop-color="#00AE35"/>
</linearGradient>
<linearGradient id="paint4_linear_88_43" x1="26.0917" y1="20.6275" x2="26.6626" y2="31.0862" gradientUnits="userSpaceOnUse">
<stop stop-color="#53C1FF"/>
<stop offset="1" stop-color="#3BF058"/>
</linearGradient>
<linearGradient id="paint5_linear_88_43" x1="10.5615" y1="10.5266" x2="28.2527" y2="28.2827" gradientUnits="userSpaceOnUse">
<stop stop-color="#00AE35"/>
<stop offset="0.727081" stop-color="#004816"/>
</linearGradient>
<linearGradient id="paint6_linear_88_43" x1="24.0779" y1="28.2179" x2="41.769" y2="10.4619" gradientUnits="userSpaceOnUse">
<stop offset="0.187093" stop-color="#004816"/>
<stop offset="1" stop-color="#00AE35"/>
</linearGradient>
</defs>
</svg>
