<?xml version="1.0" encoding="utf-8"?>
<!-- Generator: Adobe Illustrator 27.9.0, SVG Export Plug-In . SVG Version: 6.00 Build 0)  -->
<svg version="1.1" id="Layer_1" xmlns="http://www.w3.org/2000/svg" xmlns:xlink="http://www.w3.org/1999/xlink" x="0px" y="0px"
	 viewBox="0 0 80 47" style="enable-background:new 0 0 80 47;" xml:space="preserve">
<style type="text/css">
	.st0{clip-path:url(#SVGID_00000164513716006822694740000014146078305537778842_);}
	.st1{fill:url(#SVGID_00000129207902152277078320000007637926855349119113_);}
	.st2{fill:url(#SVGID_00000098192108059415850540000007310594661759159953_);}
	.st3{fill:url(#SVGID_00000010997914664418845220000006326095240733294488_);}
	.st4{fill:#FFFFFF;filter:url(#Adobe_OpacityMaskFilter);}
	
		.st5{mask:url(#path-3-inside-1_78_2_00000013167199509320366090000018423373758419305145_);fill:url(#SVGID_00000036946046809869927080000015396734317144909473_);}
	.st6{fill:#014900;}
	.st7{fill:#FFFFFF;filter:url(#Adobe_OpacityMaskFilter_00000101791597891168637670000005036797654180780972_);}
	
		.st8{mask:url(#path-5-inside-2_78_2_00000062170563279861481550000004634596934375005067_);fill:url(#SVGID_00000019654532891882322620000016772482309155034259_);}
	
		.st9{fill:url(#SVGID_00000039116037258189556360000006129426500084919212_);stroke:#FFFFFF;stroke-width:0.2;stroke-miterlimit:10;}
	.st10{fill:url(#SVGID_00000031171794983465253330000015263853058284148888_);}
	.st11{fill:url(#SVGID_00000122698341938723937470000018381478604688858802_);}
	.st12{fill:url(#SVGID_00000009562619754402954690000003801303502485195927_);}
	.st13{fill:#FFFFFF;}
	.st14{fill:#F7931E;}
</style>
<g>
	<defs>
		<rect id="SVGID_1_" width="80" height="47"/>
	</defs>
	<clipPath id="SVGID_00000129895831384415939140000014383009965754392467_">
		<use xlink:href="#SVGID_1_"  style="overflow:visible;"/>
	</clipPath>
	<g style="clip-path:url(#SVGID_00000129895831384415939140000014383009965754392467_);">
		
			<linearGradient id="SVGID_00000006694490940132246310000007265062418737514678_" gradientUnits="userSpaceOnUse" x1="1.5231" y1="24.4582" x2="45.0146" y2="24.4582" gradientTransform="matrix(1 0 0 -1 0 48)">
			<stop  offset="0" style="stop-color:#231F20"/>
			<stop  offset="0.2624" style="stop-color:#322F30;stop-opacity:0.7172"/>
			<stop  offset="0.8073" style="stop-color:#4D4D4D;stop-opacity:0.13"/>
			<stop  offset="0.8316" style="stop-color:#585858;stop-opacity:0.1641"/>
			<stop  offset="0.9439" style="stop-color:#878787;stop-opacity:0.3214"/>
			<stop  offset="1" style="stop-color:#999999;stop-opacity:0.4"/>
		</linearGradient>
		<path style="fill:url(#SVGID_00000006694490940132246310000007265062418737514678_);" d="M44.5,23.5c0,2.2-0.3,4.4-1,6.6
			c-0.7,2-1.6,4-2.9,5.7c-1.2,1.7-2.7,3.2-4.4,4.5c-1.7,1.3-3.6,2.4-5.6,3.1c-2.1,0.8-4.3,1.2-6.5,1.3c-2.2,0.1-4.5-0.2-6.6-0.8
			c-2.1-0.6-4.1-1.5-5.9-2.7c-1.8-1.2-3.4-2.6-4.7-4.2c-1.3-1.6-2.5-3.5-3.3-5.4c-0.8-2-1.3-4.2-1.5-6.4c-0.2-2.2,0-4.5,0.5-6.7
			c0.5-2.1,1.3-4.1,2.5-6c1.1-1.8,2.5-3.4,4.1-4.9c1.6-1.4,3.4-2.6,5.4-3.5c2-0.9,4.1-1.5,6.3-1.7c2.2-0.3,4.5-0.2,6.7,0.3
			C29.6,3.2,31.7,4,33.6,5c1.9,1,3.6,2.4,5,3.9c1.5,1.5,2.7,3.3,3.7,5.2c1,1.9,1.6,4,2,6.2C44.4,21.4,44.5,22.5,44.5,23.5
			c0,0.6,0.9,0.6,0.9,0c0-2.3-0.4-4.6-1.1-6.8c-0.7-2.1-1.7-4.2-3-6c-1.3-1.8-2.9-3.4-4.6-4.8C35,4.6,33,3.5,30.9,2.8
			c-2.2-0.8-4.4-1.2-6.7-1.3c-2.3-0.1-4.7,0.2-6.9,0.8C15.1,2.9,13,3.8,11.1,5C9.3,6.3,7.6,7.7,6.2,9.4c-1.4,1.7-2.6,3.7-3.5,5.8
			c-0.9,2.1-1.4,4.4-1.6,6.6c-0.2,2.3,0,4.7,0.6,6.9C2.3,31,3.1,33.1,4.3,35c1.1,1.9,2.6,3.6,4.2,5.1c1.7,1.5,3.6,2.7,5.6,3.6
			c2.1,0.9,4.3,1.6,6.6,1.8c2.3,0.3,4.7,0.2,7-0.3c2.2-0.4,4.4-1.2,6.3-2.3c1.9-1.1,3.7-2.4,5.2-4c1.5-1.6,2.8-3.4,3.8-5.4
			c1-2,1.7-4.2,2.1-6.4c0.2-1.1,0.3-2.3,0.3-3.4C45.4,22.9,44.5,22.9,44.5,23.5z"/>
		
			<linearGradient id="SVGID_00000117644335179732610260000011598639909459803583_" gradientUnits="userSpaceOnUse" x1="23.4282" y1="10.3065" x2="23.4282" y2="23.2373" gradientTransform="matrix(1 0 0 -1 0 48)">
			<stop  offset="0" style="stop-color:#7DCFFF"/>
			<stop  offset="0.4213" style="stop-color:#7BCEFE"/>
			<stop  offset="0.573" style="stop-color:#74C8F9"/>
			<stop  offset="0.6812" style="stop-color:#69BFF0"/>
			<stop  offset="0.7686" style="stop-color:#58B2E5"/>
			<stop  offset="0.8436" style="stop-color:#42A1D5"/>
			<stop  offset="0.9087" style="stop-color:#278CC2"/>
			<stop  offset="0.96" style="stop-color:#0C77AF"/>
			<stop  offset="0.9673" style="stop-color:#1078AE;stop-opacity:0.8903"/>
			<stop  offset="0.974" style="stop-color:#1B7BAD;stop-opacity:0.7897"/>
			<stop  offset="0.9805" style="stop-color:#2D7FAA;stop-opacity:0.6927"/>
			<stop  offset="0.9868" style="stop-color:#4885A6;stop-opacity:0.598"/>
			<stop  offset="0.993" style="stop-color:#698DA0;stop-opacity:0.5048"/>
			<stop  offset="0.9991" style="stop-color:#92979A;stop-opacity:0.414"/>
			<stop  offset="1" style="stop-color:#999999;stop-opacity:0.4"/>
		</linearGradient>
		<path style="fill:url(#SVGID_00000117644335179732610260000011598639909459803583_);" d="M21.2,37.7L21,24.8l4.8,0l0,12.9"/>
		
			<linearGradient id="SVGID_00000121977645171741652760000004808920280063730860_" gradientUnits="userSpaceOnUse" x1="7.8547" y1="24.5163" x2="38.9127" y2="24.5163" gradientTransform="matrix(1 0 0 -1 0 48)">
			<stop  offset="0.1331" style="stop-color:#054603"/>
			<stop  offset="0.339" style="stop-color:#054803"/>
			<stop  offset="0.4585" style="stop-color:#055103"/>
			<stop  offset="0.5466" style="stop-color:#045D02"/>
			<stop  offset="0.6843" style="stop-color:#028501"/>
			<stop  offset="0.8124" style="stop-color:#01A301"/>
			<stop  offset="0.9219" style="stop-color:#00B500"/>
			<stop  offset="1" style="stop-color:#00BC00"/>
		</linearGradient>
		<path style="fill:url(#SVGID_00000121977645171741652760000004808920280063730860_);" d="M12.5,35.4V17.8l8.8,7.2
			c0,0,0.5,0.5,1.6,0.5h1c1,0,1.6-0.5,1.6-0.5l8.8-7.2v2.6h4.7c0,0,0-5.7,0-6.7c0-1-0.5-2.1-2.1-2.1c-1.6,0-2.6,1-2.6,1l-10.4,8.3
			c-0.5,0.5-1,0-1,0l-10.4-8.3c0,0-1-1-2.6-1c-1.6,0-2.1,1-2.1,2.1c0,0.8,0,20.2,0,21.7"/>
		<defs>
			<filter id="Adobe_OpacityMaskFilter" filterUnits="userSpaceOnUse" x="7.7" y="11.4" width="31.5" height="24">
				<feColorMatrix  type="matrix" values="1 0 0 0 0  0 1 0 0 0  0 0 1 0 0  0 0 0 1 0"/>
			</filter>
		</defs>
		
			<mask maskUnits="userSpaceOnUse" x="7.7" y="11.4" width="31.5" height="24" id="path-3-inside-1_78_2_00000013167199509320366090000018423373758419305145_">
			<path class="st4" d="M12.5,35.4V17.8l8.8,7.2c0,0,0.5,0.5,1.6,0.5h1c1,0,1.6-0.5,1.6-0.5l8.8-7.2v2.6h4.7c0,0,0-5.7,0-6.7
				c0-1-0.5-2.1-2.1-2.1c-1.6,0-2.6,1-2.6,1l-10.4,8.3c-0.5,0.5-1,0-1,0l-10.4-8.3c0,0-1-1-2.6-1c-1.6,0-2.1,1-2.1,2.1
				c0,0.8,0,20.2,0,21.7"/>
		</mask>
		
			<linearGradient id="SVGID_00000069375991692848343540000008651218090989975171_" gradientUnits="userSpaceOnUse" x1="23.3837" y1="36.3973" x2="23.3837" y2="12.6354" gradientTransform="matrix(1 0 0 -1 0 48)">
			<stop  offset="1.500000e-02" style="stop-color:#364E53"/>
			<stop  offset="0.145" style="stop-color:#77A1B9"/>
		</linearGradient>
		
			<path style="mask:url(#path-3-inside-1_78_2_00000013167199509320366090000018423373758419305145_);fill:url(#SVGID_00000069375991692848343540000008651218090989975171_);" d="
			M12.5,17.8l0.1-0.2l-0.3-0.3v0.4H12.5z M21.3,25l0.1-0.1l0,0l0,0L21.3,25z M25.5,25l-0.1-0.2l0,0l0,0L25.5,25z M34.3,17.8h0.2
			v-0.4l-0.3,0.3L34.3,17.8z M34.3,20.4h-0.2v0.2h0.2V20.4z M38.9,20.4v0.2h0.2v-0.2H38.9z M34.3,12.6l0.1,0.2l0,0l0,0L34.3,12.6z
			 M23.9,20.9l-0.1-0.2l0,0l0,0L23.9,20.9z M22.9,20.9l0.1-0.1l0,0l0,0L22.9,20.9z M12.5,12.6l-0.1,0.1l0,0l0,0L12.5,12.6z
			 M12.7,35.4V17.8h-0.4v17.6H12.7z M12.4,18l8.8,7.2l0.3-0.3l-8.8-7.2L12.4,18z M21.3,25c-0.1,0.1-0.1,0.1-0.1,0.1c0,0,0,0,0,0
			c0,0,0,0,0,0c0,0,0,0,0,0c0,0,0,0,0,0c0,0,0,0,0,0c0,0,0,0,0,0c0,0,0,0,0.1,0.1c0.1,0.1,0.2,0.1,0.3,0.2c0.3,0.1,0.7,0.3,1.3,0.3
			v-0.4c-0.5,0-0.8-0.1-1.1-0.2c-0.1-0.1-0.2-0.1-0.3-0.2c0,0,0,0-0.1,0c0,0,0,0,0,0c0,0,0,0,0,0c0,0,0,0,0,0c0,0,0,0,0,0
			c0,0,0,0,0,0l0,0C21.5,24.9,21.5,24.9,21.3,25z M22.9,25.7h1v-0.4h-1V25.7z M23.9,25.7c0.6,0,1-0.1,1.3-0.3
			c0.1-0.1,0.2-0.1,0.3-0.2c0,0,0.1-0.1,0.1-0.1c0,0,0,0,0,0c0,0,0,0,0,0c0,0,0,0,0,0c0,0,0,0,0,0c0,0,0,0,0,0c0,0,0,0,0,0
			c0,0,0,0-0.1-0.1c-0.1-0.1-0.1-0.1-0.1-0.1l0,0c0,0,0,0,0,0c0,0,0,0,0,0c0,0,0,0,0,0c0,0,0,0,0,0c0,0,0,0,0,0c0,0,0,0-0.1,0
			c-0.1,0-0.1,0.1-0.3,0.2c-0.2,0.1-0.6,0.2-1.1,0.2V25.7z M25.6,25.2l8.8-7.2l-0.3-0.3l-8.8,7.2L25.6,25.2z M34.1,17.8v2.6h0.4
			v-2.6H34.1z M34.3,20.6h4.7v-0.4h-4.7V20.6z M38.9,20.4c0.2,0,0.2,0,0.2,0c0,0,0,0,0,0c0,0,0,0,0,0c0,0,0,0,0,0s0,0,0,0s0,0,0,0
			c0,0,0,0,0,0s0,0,0,0c0,0,0,0,0,0c0,0,0,0,0,0c0,0,0,0,0,0s0,0,0,0s0,0,0,0c0,0,0,0,0,0c0,0,0,0,0,0c0,0,0,0,0,0s0,0,0,0s0,0,0,0
			c0,0,0,0,0,0s0,0,0,0c0,0,0,0,0,0c0,0,0,0,0,0s0,0,0,0c0,0,0,0,0,0c0,0,0,0,0,0c0,0,0,0,0,0c0,0,0,0,0,0c0,0,0,0,0,0c0,0,0,0,0,0
			s0,0,0,0s0,0,0,0c0,0,0,0,0,0c0,0,0,0,0,0c0,0,0,0,0,0s0,0,0,0s0,0,0,0c0,0,0,0,0,0c0,0,0,0,0,0c0,0,0,0,0,0s0,0,0,0s0,0,0,0
			c0,0,0,0,0,0c0,0,0,0,0,0c0,0,0,0,0,0c0,0,0,0,0,0s0,0,0,0c0,0,0,0,0,0s0,0,0,0s0,0,0,0c0,0,0,0,0,0c0,0,0,0,0,0c0,0,0,0,0,0
			c0,0,0,0,0,0c0,0,0,0,0,0c0,0,0,0,0,0c0,0,0,0,0,0c0,0,0,0,0,0c0,0,0,0,0,0c0,0,0,0,0,0c0,0,0,0,0,0s0,0,0,0c0,0,0,0,0,0s0,0,0,0
			s0,0,0,0c0,0,0,0,0,0c0,0,0,0,0,0c0,0,0,0,0,0s0,0,0,0s0,0,0,0c0,0,0,0,0,0c0,0,0,0,0,0c0,0,0,0,0,0c0,0,0,0,0,0c0,0,0,0,0,0
			c0,0,0,0,0,0c0,0,0,0,0,0c0,0,0,0,0,0c0,0,0,0,0,0c0,0,0,0,0,0c0,0,0,0,0,0s0,0,0,0s0,0,0,0c0,0,0,0,0,0c0,0,0,0,0,0c0,0,0,0,0,0
			c0,0,0,0,0,0c0,0,0,0,0,0c0,0,0,0,0,0c0,0,0,0,0,0c0,0,0,0,0,0c0,0,0,0,0,0s0,0,0,0s0,0,0,0c0,0,0,0,0,0c0,0,0,0,0,0s0,0,0,0
			c0,0,0,0,0,0c0,0,0,0,0,0s0,0,0,0s0,0,0,0c0,0,0,0,0,0s0,0,0,0c0,0,0,0,0,0c0,0,0,0,0,0s0,0,0,0s0,0,0,0c0,0,0,0,0,0c0,0,0,0,0,0
			c0,0,0,0,0,0c0,0,0,0,0,0c0,0,0,0,0,0c0,0,0,0,0,0c0,0,0,0,0,0c0,0,0,0,0,0c0,0,0,0,0,0c0,0,0,0,0,0c0,0,0,0,0,0s0,0,0,0
			c0,0,0,0,0,0s0,0,0,0c0,0,0,0,0,0c0,0,0,0,0,0c0,0,0,0,0,0s0,0,0,0c0,0,0,0,0,0c0,0,0,0,0,0c0,0,0,0,0,0c0,0,0,0,0,0c0,0,0,0,0,0
			c0,0,0,0,0,0c0,0,0,0,0,0c0,0,0,0,0,0c0,0,0,0,0,0s0,0,0,0c0,0,0,0,0,0c0,0,0,0,0,0c0,0,0,0,0,0c0,0,0,0,0,0s0,0,0,0c0,0,0,0,0,0
			c0,0,0,0,0,0s0,0,0,0s0,0,0,0c0,0,0,0,0,0c0,0,0,0,0,0c0,0,0,0,0,0s0,0,0,0c0,0,0,0,0,0c0,0,0,0,0,0c0,0,0,0,0,0c0,0,0,0,0,0
			c0,0,0,0,0,0c0,0,0,0,0,0c0,0,0,0,0,0c0,0,0,0,0,0s0,0,0,0s0,0,0,0s0,0,0,0s0,0,0,0c0,0,0,0,0,0c0,0,0,0,0,0s0,0,0,0c0,0,0,0,0,0
			c0,0,0,0,0,0c0,0,0,0,0,0c0,0,0,0,0,0c0,0,0,0,0,0s0,0,0,0c0,0,0,0,0,0c0,0,0,0,0,0c0,0,0,0,0,0c0,0,0,0,0,0c0,0,0,0,0,0s0,0,0,0
			s0,0,0,0c0,0,0,0,0,0c0,0,0,0,0,0c0,0,0,0,0,0c0,0,0,0,0,0c0,0,0,0,0,0s0,0,0,0c0,0,0,0,0,0c0,0,0,0,0,0c0,0,0,0,0,0s0,0,0,0
			c0,0,0,0,0,0s0,0,0,0c0,0,0,0,0,0c0,0,0,0,0,0c0,0,0,0,0,0c0,0,0,0,0,0c0,0,0,0,0,0c0,0,0,0,0,0c0,0,0,0,0,0s0,0,0,0c0,0,0,0,0,0
			c0,0,0,0,0,0s0,0,0,0c0,0,0,0,0,0s0,0,0,0c0,0,0,0,0,0s0,0,0,0s0,0,0,0c0,0,0,0,0,0c0,0,0,0,0,0c0,0,0,0,0,0c0,0,0,0,0,0
			c0,0,0,0,0,0s0,0,0,0c0,0,0,0,0,0c0,0,0,0,0,0c0,0,0,0,0,0c0,0,0,0,0,0c0,0,0,0,0,0c0,0,0,0,0,0c0,0,0,0,0,0c0,0,0,0,0,0s0,0,0,0
			c0,0,0,0,0,0s0,0,0,0c0,0,0,0,0,0c0,0,0,0,0,0s0,0,0,0s0,0,0,0c0,0,0,0,0,0c0,0,0,0,0,0c0,0,0,0,0,0s0,0,0,0c0,0,0,0,0,0
			c0,0,0,0,0,0c0,0,0,0,0,0c0,0,0,0,0,0c0,0,0,0,0,0c0,0,0,0,0,0c0,0,0,0,0,0c0,0,0,0,0,0c0,0,0,0,0,0c0,0,0,0,0,0c0,0,0,0,0,0
			c0,0,0,0,0,0c0,0,0,0,0,0c0,0,0,0,0,0c0,0,0,0,0,0s0,0,0,0c0,0,0,0,0,0c0,0,0,0,0,0c0,0,0,0,0,0c0,0,0,0,0,0c0,0,0,0,0,0
			c0,0,0,0,0,0c0,0,0,0,0,0c0,0,0,0,0,0c0,0,0,0,0,0c0,0,0,0,0,0c0,0,0,0,0,0c0,0,0,0,0,0c0,0,0,0,0,0c0,0,0,0,0,0c0,0,0,0,0,0
			c0,0,0,0,0,0c0,0,0,0,0,0c0,0,0,0,0,0c0,0,0,0,0,0s0,0,0,0c0,0,0,0,0,0c0,0,0,0,0,0s0,0,0,0c0,0,0,0,0,0c0,0,0,0,0,0s0,0,0,0
			c0,0,0,0,0,0s0,0,0,0s0,0,0,0s0,0,0,0s0,0,0,0s0,0,0,0s0,0,0,0c0,0,0,0,0,0s0,0,0,0c0,0,0,0,0,0s0,0,0,0c0,0,0,0,0,0s0,0,0,0
			c0,0,0,0,0,0s0,0,0,0c0,0,0,0,0,0s0,0,0,0s0,0,0,0s0,0,0,0s0,0,0,0s0,0,0,0c0,0,0,0,0,0c0,0,0,0,0,0s0,0,0,0c0,0,0,0,0,0s0,0,0,0
			c0,0,0,0,0,0c0,0,0,0,0,0s0,0,0,0s0,0,0,0c0,0,0,0,0,0c0,0,0,0,0,0s0,0,0,0s0,0,0,0c0,0,0,0,0,0s0,0,0,0c0,0,0,0,0,0c0,0,0,0,0,0
			c0,0,0,0,0,0c0,0,0,0,0,0s0,0,0,0s0,0,0,0c0,0,0,0,0,0s0,0,0,0c0,0,0,0,0,0c0,0,0,0,0,0c0,0,0,0,0,0c0,0,0,0,0,0s0,0,0,0s0,0,0,0
			s0,0,0,0c0,0,0,0,0,0s0,0,0,0c0,0,0,0,0,0c0,0,0,0,0,0c0,0,0,0,0,0c0,0,0,0,0,0c0,0,0,0,0,0s0,0,0,0c0,0,0,0,0,0s0,0,0,0
			c0,0,0,0,0,0s0,0,0,0s0,0,0,0s0,0,0,0c0,0,0,0,0,0c0,0,0,0,0,0c0,0,0,0,0,0c0,0,0,0,0,0c0,0,0,0,0,0c0,0,0,0,0,0c0,0,0,0,0,0
			c0,0,0,0,0,0c0,0,0,0,0,0s0,0,0,0s0,0,0,0c0,0,0,0,0,0c0,0,0,0,0,0s0,0,0,0c0,0,0,0,0,0c0,0,0,0,0,0c0,0,0,0,0,0s0,0,0,0s0,0,0,0
			s0,0,0,0s0,0,0,0c0,0,0,0,0,0c0,0,0,0,0,0c0,0,0,0,0,0c0,0,0,0,0,0s0,0,0,0c0,0,0,0,0,0s0,0,0,0s0,0,0,0c0,0,0,0,0,0s0,0,0,0
			c0,0,0,0,0,0c0,0,0,0,0,0c0,0,0,0,0,0c0,0,0,0,0,0s0,0,0,0c0,0,0,0,0,0c0,0,0,0,0,0c0,0,0,0,0,0c0,0,0,0,0,0c0,0,0,0,0,0s0,0,0,0
			c0,0,0,0,0,0c0,0,0,0,0,0c0,0,0,0,0,0s0,0,0,0c0,0,0,0,0,0c0,0,0,0,0,0c0,0,0,0,0,0c0,0,0,0,0,0c0,0,0,0,0,0c0,0,0,0,0,0
			c0,0,0,0,0,0c0,0,0,0,0,0c0,0,0,0,0,0c0,0,0,0,0,0s0,0,0,0c0,0,0,0,0,0c0,0,0,0,0,0s0,0,0,0s0,0,0,0c0,0,0,0,0,0c0,0,0,0,0,0
			c0,0,0,0,0,0c0,0,0,0,0,0c0,0,0,0,0,0s0,0,0,0s0,0,0,0s0,0,0,0c0,0,0,0,0,0c0,0,0,0,0,0s0,0,0,0s0,0,0,0c0,0,0,0,0,0c0,0,0,0,0,0
			c0,0,0,0,0,0c0,0,0,0,0,0s0,0,0,0c0,0,0,0,0,0c0,0,0,0,0,0c0,0,0,0,0,0c0,0,0,0,0,0c0,0,0,0,0,0c0,0,0,0,0,0c0,0,0,0,0,0
			c0,0,0,0,0,0c0,0,0,0,0,0c0,0,0,0,0,0c0,0,0,0,0,0c0,0,0,0,0,0c0,0,0,0,0,0c0,0,0,0,0,0c0,0,0,0,0,0c0,0,0,0,0,0c0,0,0,0,0,0
			s0,0,0,0s0,0,0,0c0,0,0,0,0,0s0,0,0,0s0,0,0,0s0,0,0,0c0,0,0,0,0,0c0,0,0,0,0,0s0,0,0,0s0,0,0,0s0,0,0,0c0,0,0,0,0,0s0,0,0,0
			c0,0,0,0,0,0s0,0,0,0c0,0,0,0,0,0c0,0,0,0,0,0c0,0,0,0,0,0c0,0,0,0,0,0c0,0,0,0,0,0c0,0,0,0,0,0c0,0,0,0,0,0c0,0,0,0,0,0
			c0,0,0,0,0,0c0,0,0,0,0,0s0,0,0,0c0,0,0,0,0,0c0,0,0,0,0,0c0,0,0,0,0,0c0,0,0,0,0,0c0,0,0,0,0,0c0,0,0,0,0,0c0,0,0,0,0,0
			c0,0,0,0,0,0c0,0,0,0,0,0s0,0,0,0s0,0,0,0c0,0,0,0,0,0c0,0,0,0,0,0s0,0,0,0c0,0,0,0,0,0c0,0,0,0,0,0c0,0,0,0,0,0c0,0,0,0,0,0
			c0,0,0,0,0,0c0,0,0,0,0,0c0,0,0,0,0,0c0,0,0,0,0,0c0,0,0,0,0,0c0,0,0,0,0,0c0,0,0,0,0,0c0,0,0,0,0,0c0,0,0,0,0,0s0,0,0,0
			c0,0,0,0,0,0c0,0,0,0,0,0s0,0,0,0c0,0,0,0,0,0c0,0,0,0,0,0s0,0,0,0c0,0,0,0,0,0c0,0,0,0,0,0c0,0,0,0,0,0c0,0,0,0,0,0c0,0,0,0,0,0
			c0,0,0,0,0,0c0,0,0,0,0,0c0,0,0,0,0,0c0,0,0,0,0,0c0,0,0,0,0,0c0,0,0,0,0,0c0,0,0,0,0,0c0,0,0,0,0,0c0,0,0,0,0,0c0,0,0,0,0,0
			c0,0,0,0,0,0c0,0,0,0,0,0s0,0,0,0c0,0,0,0,0,0c0,0,0,0,0,0c0,0,0,0,0,0c0,0,0,0,0,0h-0.4c0,0,0,0,0,0c0,0,0,0,0,0c0,0,0,0,0,0
			c0,0,0,0,0,0c0,0,0,0,0,0s0,0,0,0c0,0,0,0,0,0c0,0,0,0,0,0c0,0,0,0,0,0c0,0,0,0,0,0c0,0,0,0,0,0c0,0,0,0,0,0c0,0,0,0,0,0
			c0,0,0,0,0,0c0,0,0,0,0,0c0,0,0,0,0,0c0,0,0,0,0,0c0,0,0,0,0,0c0,0,0,0,0,0c0,0,0,0,0,0c0,0,0,0,0,0c0,0,0,0,0,0c0,0,0,0,0,0
			s0,0,0,0c0,0,0,0,0,0c0,0,0,0,0,0s0,0,0,0c0,0,0,0,0,0c0,0,0,0,0,0s0,0,0,0c0,0,0,0,0,0c0,0,0,0,0,0c0,0,0,0,0,0c0,0,0,0,0,0
			c0,0,0,0,0,0c0,0,0,0,0,0c0,0,0,0,0,0c0,0,0,0,0,0c0,0,0,0,0,0c0,0,0,0,0,0c0,0,0,0,0,0c0,0,0,0,0,0c0,0,0,0,0,0s0,0,0,0
			c0,0,0,0,0,0c0,0,0,0,0,0s0,0,0,0s0,0,0,0c0,0,0,0,0,0c0,0,0,0,0,0c0,0,0,0,0,0c0,0,0,0,0,0c0,0,0,0,0,0c0,0,0,0,0,0c0,0,0,0,0,0
			c0,0,0,0,0,0c0,0,0,0,0,0s0,0,0,0c0,0,0,0,0,0c0,0,0,0,0,0c0,0,0,0,0,0c0,0,0,0,0,0c0,0,0,0,0,0c0,0,0,0,0,0c0,0,0,0,0,0
			c0,0,0,0,0,0c0,0,0,0,0,0c0,0,0,0,0,0s0,0,0,0c0,0,0,0,0,0s0,0,0,0c0,0,0,0,0,0s0,0,0,0s0,0,0,0s0,0,0,0c0,0,0,0,0,0c0,0,0,0,0,0
			s0,0,0,0s0,0,0,0s0,0,0,0c0,0,0,0,0,0s0,0,0,0s0,0,0,0c0,0,0,0,0,0c0,0,0,0,0,0c0,0,0,0,0,0c0,0,0,0,0,0c0,0,0,0,0,0c0,0,0,0,0,0
			c0,0,0,0,0,0c0,0,0,0,0,0c0,0,0,0,0,0c0,0,0,0,0,0c0,0,0,0,0,0c0,0,0,0,0,0c0,0,0,0,0,0c0,0,0,0,0,0c0,0,0,0,0,0c0,0,0,0,0,0
			c0,0,0,0,0,0s0,0,0,0c0,0,0,0,0,0c0,0,0,0,0,0c0,0,0,0,0,0c0,0,0,0,0,0s0,0,0,0s0,0,0,0c0,0,0,0,0,0c0,0,0,0,0,0s0,0,0,0s0,0,0,0
			s0,0,0,0c0,0,0,0,0,0c0,0,0,0,0,0c0,0,0,0,0,0c0,0,0,0,0,0c0,0,0,0,0,0s0,0,0,0s0,0,0,0c0,0,0,0,0,0c0,0,0,0,0,0s0,0,0,0
			c0,0,0,0,0,0c0,0,0,0,0,0c0,0,0,0,0,0c0,0,0,0,0,0c0,0,0,0,0,0c0,0,0,0,0,0c0,0,0,0,0,0c0,0,0,0,0,0c0,0,0,0,0,0c0,0,0,0,0,0
			s0,0,0,0c0,0,0,0,0,0c0,0,0,0,0,0c0,0,0,0,0,0s0,0,0,0c0,0,0,0,0,0c0,0,0,0,0,0c0,0,0,0,0,0c0,0,0,0,0,0c0,0,0,0,0,0s0,0,0,0
			c0,0,0,0,0,0c0,0,0,0,0,0c0,0,0,0,0,0c0,0,0,0,0,0s0,0,0,0c0,0,0,0,0,0s0,0,0,0s0,0,0,0c0,0,0,0,0,0s0,0,0,0c0,0,0,0,0,0
			c0,0,0,0,0,0c0,0,0,0,0,0c0,0,0,0,0,0s0,0,0,0s0,0,0,0s0,0,0,0s0,0,0,0c0,0,0,0,0,0c0,0,0,0,0,0c0,0,0,0,0,0s0,0,0,0c0,0,0,0,0,0
			c0,0,0,0,0,0s0,0,0,0s0,0,0,0c0,0,0,0,0,0c0,0,0,0,0,0c0,0,0,0,0,0c0,0,0,0,0,0c0,0,0,0,0,0c0,0,0,0,0,0c0,0,0,0,0,0c0,0,0,0,0,0
			c0,0,0,0,0,0s0,0,0,0s0,0,0,0s0,0,0,0c0,0,0,0,0,0s0,0,0,0c0,0,0,0,0,0s0,0,0,0c0,0,0,0,0,0c0,0,0,0,0,0c0,0,0,0,0,0c0,0,0,0,0,0
			c0,0,0,0,0,0s0,0,0,0c0,0,0,0,0,0s0,0,0,0s0,0,0,0s0,0,0,0c0,0,0,0,0,0c0,0,0,0,0,0c0,0,0,0,0,0c0,0,0,0,0,0s0,0,0,0c0,0,0,0,0,0
			s0,0,0,0s0,0,0,0c0,0,0,0,0,0c0,0,0,0,0,0c0,0,0,0,0,0c0,0,0,0,0,0s0,0,0,0c0,0,0,0,0,0s0,0,0,0s0,0,0,0c0,0,0,0,0,0c0,0,0,0,0,0
			s0,0,0,0s0,0,0,0c0,0,0,0,0,0c0,0,0,0,0,0s0,0,0,0c0,0,0,0,0,0s0,0,0,0c0,0,0,0,0,0c0,0,0,0,0,0s0,0,0,0s0,0,0,0s0,0,0,0s0,0,0,0
			s0,0,0,0c0,0,0,0,0,0s0,0,0,0c0,0,0,0,0,0s0,0,0,0c0,0,0,0,0,0s0,0,0,0c0,0,0,0,0,0s0,0,0,0c0,0,0,0,0,0s0,0,0,0s0,0,0,0s0,0,0,0
			s0,0,0,0s0,0,0,0s0,0,0,0c0,0,0,0,0,0s0,0,0,0c0,0,0,0,0,0c0,0,0,0,0,0s0,0,0,0c0,0,0,0,0,0c0,0,0,0,0,0s0,0,0,0c0,0,0,0,0,0
			c0,0,0,0,0,0c0,0,0,0,0,0c0,0,0,0,0,0c0,0,0,0,0,0c0,0,0,0,0,0c0,0,0,0,0,0c0,0,0,0,0,0c0,0,0,0,0,0c0,0,0,0,0,0c0,0,0,0,0,0
			c0,0,0,0,0,0c0,0,0,0,0,0c0,0,0,0,0,0c0,0,0,0,0,0c0,0,0,0,0,0c0,0,0,0,0,0c0,0,0,0,0,0c0,0,0,0,0,0s0,0,0,0c0,0,0,0,0,0
			c0,0,0,0,0,0c0,0,0,0,0,0c0,0,0,0,0,0c0,0,0,0,0,0c0,0,0,0,0,0c0,0,0,0,0,0c0,0,0,0,0,0c0,0,0,0,0,0c0,0,0,0,0,0c0,0,0,0,0,0
			c0,0,0,0,0,0c0,0,0,0,0,0c0,0,0,0,0,0c0,0,0,0,0,0s0,0,0,0c0,0,0,0,0,0c0,0,0,0,0,0c0,0,0,0,0,0s0,0,0,0s0,0,0,0c0,0,0,0,0,0
			c0,0,0,0,0,0s0,0,0,0c0,0,0,0,0,0s0,0,0,0c0,0,0,0,0,0c0,0,0,0,0,0c0,0,0,0,0,0c0,0,0,0,0,0c0,0,0,0,0,0c0,0,0,0,0,0c0,0,0,0,0,0
			c0,0,0,0,0,0s0,0,0,0c0,0,0,0,0,0c0,0,0,0,0,0c0,0,0,0,0,0c0,0,0,0,0,0c0,0,0,0,0,0s0,0,0,0s0,0,0,0c0,0,0,0,0,0s0,0,0,0
			c0,0,0,0,0,0s0,0,0,0c0,0,0,0,0,0c0,0,0,0,0,0s0,0,0,0c0,0,0,0,0,0c0,0,0,0,0,0c0,0,0,0,0,0c0,0,0,0,0,0c0,0,0,0,0,0c0,0,0,0,0,0
			c0,0,0,0,0,0s0,0,0,0c0,0,0,0,0,0s0,0,0,0c0,0,0,0,0,0c0,0,0,0,0,0c0,0,0,0,0,0s0,0,0,0c0,0,0,0,0,0c0,0,0,0,0,0c0,0,0,0,0,0
			c0,0,0,0,0,0c0,0,0,0,0,0s0,0,0,0s0,0,0,0c0,0,0,0,0,0c0,0,0,0,0,0c0,0,0,0,0,0c0,0,0,0,0,0c0,0,0,0,0,0s0,0,0,0c0,0,0,0,0,0
			c0,0,0,0,0,0c0,0,0,0,0,0c0,0,0,0,0,0c0,0,0,0,0,0s0,0,0,0c0,0,0,0,0,0c0,0,0,0,0,0s0,0,0,0s0,0,0,0s0,0,0,0s0,0,0,0c0,0,0,0,0,0
			c0,0,0,0,0,0c0,0,0,0,0,0c0,0,0,0,0,0c0,0,0,0,0,0c0,0,0,0,0,0c0,0,0,0,0,0c0,0,0,0,0,0s0,0,0,0c0,0,0,0,0,0c0,0,0,0,0,0
			c0,0,0,0,0,0s0,0,0,0s0,0,0,0c0,0,0,0,0,0c0,0,0,0,0,0s0,0,0,0c0,0,0,0,0,0c0,0,0,0,0,0c0,0,0,0,0,0c0,0,0,0,0,0s0,0,0,0
			c0,0,0,0,0,0c0,0,0,0,0,0c0,0,0,0,0,0c0,0,0,0,0,0c0,0,0,0,0,0c0,0,0,0,0,0c0,0,0,0,0,0c0,0,0,0,0,0c0,0,0,0,0,0s0,0,0,0
			c0,0,0,0,0,0c0,0,0,0,0,0c0,0,0,0,0,0s0,0,0,0c0,0,0,0,0,0s0,0,0,0c0,0,0,0,0,0c0,0,0,0,0,0c0,0,0,0,0,0c0,0,0,0,0,0c0,0,0,0,0,0
			c0,0,0,0,0,0c0,0,0,0,0,0c0,0,0,0,0,0c0,0,0,0,0,0c0,0,0,0,0,0c0,0,0,0,0,0s0,0,0,0s0,0,0,0c0,0,0,0,0,0c0,0,0,0,0,0s0,0,0,0
			c0,0,0,0,0,0s0,0,0,0s0,0,0,0c0,0,0,0,0,0c0,0,0,0,0,0s0,0,0,0c0,0,0,0,0,0c0,0,0,0,0,0s0,0,0,0s0,0,0,0c0,0,0,0,0,0c0,0,0,0,0,0
			c0,0,0,0,0,0c0,0,0,0,0,0c0,0,0,0,0,0c0,0,0,0,0,0c0,0,0,0,0,0c0,0,0,0,0,0c0,0,0,0,0,0s0,0,0,0s0,0,0,0c0,0,0,0,0,0c0,0,0,0,0,0
			c0,0,0,0,0,0c0,0,0,0,0,0c0,0,0,0,0,0c0,0,0,0,0,0c0,0,0,0,0,0c0,0,0,0,0,0c0,0,0,0,0,0c0,0,0,0,0,0c0,0,0,0,0,0s0,0,0,0s0,0,0,0
			c0,0,0,0,0,0c0,0,0,0,0,0c0,0,0,0,0,0s0,0,0,0s0,0,0,0c0,0,0,0,0,0s0,0,0,0c0,0,0,0,0,0c0,0,0,0,0,0c0,0,0,0,0,0c0,0,0,0,0,0
			c0,0,0,0,0,0c0,0,0,0,0,0c0,0,0,0,0,0c0,0,0,0,0,0c0,0,0,0,0,0c0,0,0,0,0,0c0,0,0,0,0,0s0,0,0,0s0,0,0,0c0,0,0,0,0,0s0,0,0,0
			c0,0,0,0,0,0c0,0,0,0,0,0c0,0,0,0,0,0c0,0,0,0,0,0s0,0,0,0s0,0,0,0c0,0,0,0,0,0c0,0,0,0,0,0c0,0,0,0,0,0s0,0,0,0s0,0,0,0
			c0,0,0,0,0,0c0,0,0,0,0,0c0,0,0,0,0,0s0,0,0,0s0,0,0,0c0,0,0,0,0,0c0,0,0,0,0,0c0,0,0,0,0,0c0,0,0,0,0,0c0,0,0,0,0,0c0,0,0,0,0,0
			s0,0,0,0c0,0,0,0,0,0c0,0,0,0,0,0s0,0,0,0c0,0,0,0,0,0s0,0,0,0s0,0,0,0c0,0,0,0,0,0c0,0,0,0,0,0c0,0,0,0,0,0s0,0,0,0s0,0,0,0
			c0,0,0,0,0,0c0,0,0,0,0,0c0,0,0,0,0,0s0,0,0,0c0,0,0,0,0,0s0,0,0,0s0,0,0,0c0,0,0,0,0,0c0,0,0,0,0,0
			C38.7,20.4,38.7,20.4,38.9,20.4z M39.1,13.7c0-0.5-0.1-1.1-0.5-1.5c-0.4-0.4-0.9-0.7-1.8-0.7v0.4c0.7,0,1.2,0.2,1.5,0.6
			c0.3,0.3,0.4,0.8,0.4,1.3H39.1z M36.8,11.4c-0.8,0-1.5,0.3-2,0.5c-0.2,0.1-0.4,0.3-0.6,0.4c-0.1,0.1-0.1,0.1-0.1,0.1c0,0,0,0,0,0
			c0,0,0,0,0,0c0,0,0,0,0,0c0,0,0,0,0,0c0,0,0,0,0,0l0,0c0,0,0,0,0.1,0.1c0.1,0.1,0.1,0.1,0.1,0.1c0,0,0,0,0,0c0,0,0,0,0,0s0,0,0,0
			c0,0,0,0,0,0c0,0,0,0,0,0c0,0,0,0,0,0c0,0,0.1-0.1,0.1-0.1c0.1-0.1,0.3-0.2,0.5-0.3c0.4-0.2,1-0.5,1.8-0.5V11.4z M34.1,12.5
			l-10.4,8.3l0.2,0.3l10.4-8.3L34.1,12.5z M23.8,20.8c-0.1,0.1-0.2,0.1-0.3,0.2c-0.1,0-0.2,0-0.2,0c-0.1,0-0.1-0.1-0.2-0.1
			c0,0,0,0-0.1,0c0,0,0,0,0,0c0,0,0,0,0,0c0,0,0,0,0,0c0,0,0,0,0,0c0,0,0,0,0,0c0,0,0,0,0,0c0,0,0,0-0.1,0.1
			C22.7,21,22.7,21,22.7,21c0,0,0,0,0,0c0,0,0,0,0,0c0,0,0,0,0,0c0,0,0,0,0,0c0,0,0,0,0,0c0,0,0,0,0,0c0,0,0,0,0.1,0.1
			c0.1,0,0.2,0.1,0.3,0.1c0.1,0,0.3,0.1,0.4,0c0.2,0,0.3-0.1,0.5-0.3L23.8,20.8z M23,20.7l-10.4-8.3l-0.2,0.3l10.4,8.3L23,20.7z
			 M12.5,12.6c0.1-0.1,0.1-0.1,0.1-0.1c0,0,0,0,0,0c0,0,0,0,0,0c0,0,0,0,0,0c0,0,0,0,0,0c0,0,0,0,0,0c0,0,0,0,0,0
			c0,0-0.1-0.1-0.1-0.1c-0.1-0.1-0.3-0.2-0.6-0.4c-0.5-0.3-1.2-0.5-2-0.5v0.4c0.7,0,1.3,0.2,1.8,0.5c0.2,0.1,0.4,0.2,0.5,0.3
			c0.1,0,0.1,0.1,0.1,0.1c0,0,0,0,0,0c0,0,0,0,0,0c0,0,0,0,0,0c0,0,0,0,0,0c0,0,0,0,0,0h0C12.4,12.8,12.4,12.8,12.5,12.6z M9.9,11.4
			c-0.8,0-1.4,0.3-1.8,0.7c-0.4,0.4-0.5,1-0.5,1.5h0.4c0-0.5,0.1-1,0.4-1.3c0.3-0.3,0.7-0.6,1.5-0.6V11.4z M7.7,13.7
			C7.7,13.7,7.7,13.7,7.7,13.7C7.7,13.7,7.7,13.7,7.7,13.7C7.7,13.7,7.7,13.7,7.7,13.7C7.7,13.7,7.7,13.7,7.7,13.7
			C7.7,13.7,7.7,13.7,7.7,13.7C7.7,13.7,7.7,13.7,7.7,13.7C7.7,13.7,7.7,13.7,7.7,13.7C7.7,13.7,7.7,13.7,7.7,13.7
			C7.7,13.7,7.7,13.7,7.7,13.7C7.7,13.7,7.7,13.7,7.7,13.7C7.7,13.7,7.7,13.7,7.7,13.7C7.7,13.8,7.7,13.8,7.7,13.7
			C7.7,13.8,7.7,13.8,7.7,13.7c0,0.1,0,0.1,0,0.1s0,0,0,0c0,0,0,0,0,0s0,0,0,0c0,0,0,0,0,0c0,0,0,0,0,0c0,0,0,0,0,0s0,0,0,0
			c0,0,0,0,0,0c0,0,0,0,0,0s0,0,0,0c0,0,0,0,0,0c0,0,0,0,0,0c0,0,0,0,0,0c0,0,0,0,0,0c0,0,0,0,0,0c0,0,0,0,0,0s0,0,0,0s0,0,0,0
			c0,0,0,0,0,0c0,0,0,0,0,0c0,0,0,0,0,0s0,0,0,0c0,0,0,0,0,0c0,0,0,0,0,0c0,0,0,0,0,0c0,0,0,0,0,0s0,0,0,0c0,0,0,0,0,0c0,0,0,0,0,0
			c0,0,0,0,0,0c0,0,0,0,0,0s0,0,0,0s0,0,0,0c0,0,0,0,0,0c0,0,0,0,0,0c0,0,0,0,0,0c0,0,0,0,0,0c0,0,0,0,0,0c0,0,0,0,0,0c0,0,0,0,0,0
			s0,0,0,0c0,0,0,0,0,0c0,0,0,0,0,0c0,0,0,0,0,0c0,0,0,0,0,0s0,0,0,0s0,0,0,0s0,0,0,0c0,0,0,0,0,0c0,0,0,0,0,0c0,0,0,0,0,0
			c0,0,0,0,0,0c0,0,0,0,0,0c0,0,0,0,0,0c0,0,0,0,0,0s0,0,0,0c0,0,0,0,0,0c0,0,0,0,0,0c0,0,0,0,0,0c0,0,0,0,0,0c0,0,0,0,0,0
			c0,0,0,0,0,0c0,0,0,0,0,0c0,0,0,0,0,0c0,0,0,0,0,0c0,0,0,0,0,0s0,0,0,0s0,0,0,0c0,0,0,0,0,0c0,0,0,0,0,0c0,0,0,0,0,0c0,0,0,0,0,0
			c0,0,0,0,0,0c0,0,0,0,0,0c0,0,0,0,0,0c0,0,0,0,0,0c0,0,0,0,0,0c0,0,0,0,0,0c0,0,0,0,0,0c0,0,0,0,0,0c0,0,0,0,0,0s0,0,0,0
			c0,0,0,0,0,0s0,0,0,0c0,0,0,0,0,0c0,0,0,0,0,0c0,0,0,0,0,0s0,0,0,0c0,0,0,0,0,0s0,0,0,0c0,0,0,0,0,0c0,0,0,0,0,0c0,0,0,0,0,0
			c0,0,0,0,0,0c0,0,0,0,0,0c0,0,0,0,0,0c0,0,0,0,0,0c0,0,0,0,0,0s0,0,0,0c0,0,0,0,0,0c0,0,0,0,0,0c0,0,0,0,0,0c0,0,0,0,0,0
			c0,0,0,0,0,0s0,0,0,0c0,0,0,0,0,0c0,0,0,0,0,0c0,0,0,0,0,0c0,0,0,0,0,0s0,0,0,0c0,0,0,0,0,0c0,0,0,0,0,0s0,0,0,0c0,0,0,0,0,0
			c0,0,0,0,0,0c0,0,0,0,0,0s0,0,0,0c0,0,0,0,0,0c0,0,0,0,0,0s0,0,0,0s0,0,0,0c0,0,0,0,0,0c0,0,0,0,0,0c0,0,0,0,0,0c0,0,0,0,0,0
			c0,0,0,0,0,0s0,0,0,0c0,0,0,0,0,0c0,0,0,0,0,0c0,0,0,0,0,0c0,0,0,0,0,0s0,0,0,0c0,0,0,0,0,0c0,0,0,0,0,0s0,0,0,0c0,0,0,0,0,0.1
			c0,0,0,0,0,0.1s0,0,0,0.1c0,0,0,0,0,0.1c0,0,0,0,0,0.1c0,0,0,0,0,0.1c0,0,0,0,0,0.1c0,0,0,0,0,0.1c0,0,0,0,0,0.1s0,0,0,0.1
			c0,0,0,0,0,0.1c0,0,0,0,0,0.1c0,0,0,0,0,0.1c0,0,0,0,0,0.1c0,0,0,0,0,0.1s0,0,0,0.1c0,0,0,0,0,0.1c0,0,0,0,0,0.1c0,0,0,0,0,0.1
			c0,0,0,0,0,0.1c0,0,0,0,0,0.1s0,0,0,0.1c0,0,0,0,0,0.1s0,0,0,0.1c0,0,0,0,0,0.1c0,0,0,0,0,0.1c0,0,0,0,0,0.1s0,0,0,0.1
			c0,0,0,0,0,0.1c0,0,0,0,0,0.1s0,0,0,0.1c0,0,0,0,0,0.1c0,0,0,0,0,0.1c0,0,0,0,0,0.1s0,0,0,0.1c0,0,0,0,0,0.1c0,0,0,0,0,0.1
			c0,0,0,0,0,0.1c0,0,0,0,0,0.1c0,0,0,0,0,0.1c0,0,0,0,0,0.1s0,0,0,0.1s0,0,0,0.1c0,0,0,0,0,0.1c0,0,0,0,0,0.1c0,0,0,0,0,0.1
			c0,0,0,0,0,0.1s0,0,0,0.1c0,0,0,0,0,0.1c0,0,0,0,0,0.1c0,0,0,0,0,0.1c0,0,0,0,0,0.1c0,0,0,0,0,0.1s0,0,0,0.1c0,0,0,0,0,0.1
			c0,0,0,0,0,0.1c0,0,0,0,0,0.1c0,0,0,0,0,0.1c0,0,0,0,0,0.1s0,0,0,0.1c0,0,0,0,0,0.1s0,0,0,0.1c0,0,0,0,0,0.1c0,0,0,0,0,0.1
			c0,0,0,0,0,0.1c0,0,0,0,0,0.1c0,0,0,0,0,0.1c0,0,0,0,0,0.1c0,0,0,0,0,0.1c0,0,0,0,0,0.1c0,0,0,0,0,0.1s0,0,0,0.1s0,0,0,0.1
			c0,0,0,0,0,0.1c0,0,0,0,0,0.1c0,0,0,0,0,0.1c0,0,0,0,0,0.1c0,0,0,0,0,0.1c0,0,0,0,0,0.1c0,0,0,0,0,0.1c0,0,0,0,0,0.1
			c0,0,0,0,0,0.1s0,0,0,0.1c0,0,0,0,0,0.1c0,0,0,0,0,0.1c0,0,0,0,0,0.1c0,0,0,0,0,0.1c0,0,0,0,0,0.1c0,0,0,0,0,0.1c0,0,0,0,0,0.1
			c0,0,0,0,0,0.1s0,0,0,0.1c0,0,0,0,0,0.1c0,0,0,0,0,0.1c0,0,0,0,0,0.1c0,0,0,0,0,0.1c0,0,0,0,0,0.1s0,0,0,0.1s0,0,0,0.1
			c0,0,0,0,0,0.1c0,0,0,0,0,0.1c0,0,0,0,0,0.1c0,0,0,0,0,0.1c0,0,0,0,0,0.1s0,0,0,0.1c0,0,0,0,0,0.1c0,0,0,0,0,0.1c0,0,0,0,0,0.1
			c0,0,0,0,0,0.1c0,0,0,0,0,0.1c0,0,0,0,0,0.1c0,0,0,0,0,0.1c0,0,0,0,0,0.1c0,0,0,0,0,0.1c0,0,0,0,0,0.1c0,0,0,0,0,0.1
			c0,0,0,0,0,0.1c0,0,0,0,0,0.1c0,0,0,0,0,0.1s0,0,0,0.1s0,0,0,0.1c0,0,0,0,0,0.1c0,0,0,0,0,0.1c0,0,0,0,0,0.1c0,0,0,0,0,0.1
			c0,0,0,0,0,0.1s0,0,0,0.1s0,0,0,0.1c0,0,0,0,0,0.1c0,0,0,0,0,0.1s0,0,0,0.1c0,0,0,0,0,0.1c0,0,0,0,0,0.1c0,0,0,0,0,0.1
			c0,0,0,0,0,0.1c0,0,0,0,0,0.1c0,0,0,0,0,0.1c0,0,0,0,0,0.1c0,0,0,0,0,0.1c0,0,0,0,0,0.1c0,0,0,0,0,0.1c0,0,0,0,0,0.1s0,0,0,0.1
			c0,0,0,0,0,0.1c0,0,0,0,0,0.1c0,0,0,0,0,0.1c0,0,0,0,0,0.1c0,0,0,0,0,0.1c0,0,0,0,0,0.1c0,0,0,0,0,0.1s0,0,0,0.1c0,0,0,0,0,0.1
			c0,0,0,0,0,0.1s0,0,0,0.1s0,0,0,0.1c0,0,0,0,0,0.1c0,0,0,0,0,0.1c0,0,0,0,0,0.1s0,0,0,0.1c0,0,0,0,0,0.1c0,0,0,0,0,0.1
			c0,0,0,0,0,0.1c0,0,0,0,0,0.1c0,0,0,0,0,0.1c0,0,0,0,0,0.1c0,0,0,0,0,0.1c0,0,0,0,0,0.1c0,0,0,0,0,0.1s0,0,0,0.1c0,0,0,0,0,0.1
			c0,0,0,0,0,0.1c0,0,0,0,0,0.1c0,0,0,0,0,0.1c0,0,0,0,0,0.1c0,0,0,0,0,0.1c0,0,0,0,0,0.1c0,0,0,0,0,0.1s0,0,0,0.1c0,0,0,0,0,0.1
			c0,0,0,0,0,0.1c0,0,0,0,0,0.1c0,0,0,0,0,0.1c0,0,0,0,0,0.1s0,0,0,0.1c0,0,0,0,0,0.1c0,0,0,0,0,0.1s0,0,0,0.1c0,0,0,0,0,0.1
			c0,0,0,0,0,0.1c0,0,0,0,0,0.1s0,0,0,0.1c0,0,0,0,0,0.1c0,0,0,0,0,0.1c0,0,0,0,0,0.1c0,0,0,0,0,0.1c0,0,0,0,0,0.1c0,0,0,0,0,0.1
			c0,0,0,0,0,0.1c0,0,0,0,0,0.1s0,0,0,0.1c0,0,0,0,0,0.1c0,0,0,0,0,0.1c0,0,0,0,0,0.1s0,0,0,0.1c0,0,0,0,0,0.1s0,0,0,0.1
			c0,0,0,0,0,0.1c0,0,0,0,0,0.1c0,0,0,0,0,0.1s0,0,0,0.1c0,0,0,0,0,0.1c0,0,0,0,0,0.1c0,0,0,0,0,0.1s0,0,0,0.1c0,0,0,0,0,0.1
			c0,0,0,0,0,0.1c0,0,0,0,0,0.1c0,0,0,0,0,0.1s0,0,0,0.1c0,0,0,0,0,0.1c0,0,0,0,0,0.1c0,0,0,0,0,0.1c0,0,0,0,0,0.1c0,0,0,0,0,0.1
			c0,0,0,0,0,0c0,0,0,0,0,0c0,0,0,0,0,0s0,0,0,0c0,0,0,0,0,0c0,0,0,0,0,0c0,0,0,0,0,0c0,0,0,0,0,0c0,0,0,0,0,0s0,0,0,0c0,0,0,0,0,0
			c0,0,0,0,0,0c0,0,0,0,0,0s0,0,0,0c0,0,0,0,0,0c0,0,0,0,0,0c0,0,0,0,0,0c0,0,0,0,0,0c0,0,0,0,0,0s0,0,0,0c0,0,0,0,0,0c0,0,0,0,0,0
			s0,0,0,0c0,0,0,0,0,0c0,0,0,0,0,0s0,0,0,0s0,0,0,0c0,0,0,0,0,0c0,0,0,0,0,0c0,0,0,0,0,0c0,0,0,0,0,0s0,0,0,0s0,0,0,0c0,0,0,0,0,0
			c0,0,0,0,0,0s0,0,0,0s0,0,0,0c0,0,0,0,0,0c0,0,0,0,0,0c0,0,0,0,0,0c0,0,0,0,0,0c0,0,0,0,0,0c0,0,0,0,0,0c0,0,0,0,0,0c0,0,0,0,0,0
			c0,0,0,0,0,0c0,0,0,0,0,0s0,0,0,0c0,0,0,0,0,0c0,0,0,0,0,0c0,0,0,0,0,0c0,0,0,0,0,0c0,0,0,0,0,0s0,0,0,0s0,0,0,0s0,0,0,0s0,0,0,0
			c0,0,0,0,0,0c0,0,0,0,0,0s0,0,0,0c0,0,0,0,0,0c0,0,0,0,0,0s0,0,0,0c0,0,0,0,0,0c0,0,0,0,0,0c0,0,0,0,0,0c0,0,0,0,0,0c0,0,0,0,0,0
			s0,0,0,0c0,0,0,0,0,0s0,0,0,0c0,0,0,0,0,0c0,0,0,0,0,0c0,0,0,0,0,0c0,0,0,0,0,0s0,0,0,0c0,0,0,0,0,0c0,0,0,0,0,0s0,0,0,0
			c0,0,0,0,0,0s0,0,0,0c0,0,0,0,0,0c0,0,0,0,0,0c0,0,0,0,0,0c0,0,0,0,0,0c0,0,0,0,0,0s0,0,0,0c0,0,0,0,0,0s0,0,0,0c0,0,0,0,0,0
			c0,0,0,0,0,0c0,0,0,0,0,0c0,0,0,0,0,0c0,0,0,0,0,0c0,0,0,0,0,0s0,0,0,0c0,0,0,0,0,0c0,0,0,0,0,0c0,0,0,0,0,0c0,0,0,0,0,0
			c0,0,0,0,0,0c0,0,0,0,0,0c0,0,0,0,0,0c0,0,0,0,0,0s0,0,0,0c0,0,0,0,0,0c0,0,0,0,0,0c0,0,0,0,0,0s0,0,0,0c0,0,0,0,0,0c0,0,0,0,0,0
			s0,0,0,0c0,0,0,0,0,0c0,0,0,0,0,0c0,0,0,0,0,0c0,0,0,0,0,0c0,0,0,0,0,0c0,0,0,0,0,0s0,0,0,0s0,0,0,0s0,0,0,0c0,0,0,0,0,0
			c0,0,0,0,0,0c0,0,0,0,0,0c0,0,0,0,0,0c0,0,0,0,0,0s0,0,0,0c0,0,0,0,0,0c0,0,0,0,0,0s0,0,0,0s0,0,0,0c0,0,0,0,0,0c0,0,0,0,0,0
			s0,0,0,0c0,0,0,0,0,0c0,0,0,0,0,0s0,0,0,0c0,0,0,0,0,0s0,0,0,0h0.4c0,0,0,0,0,0s0,0,0,0c0,0,0,0,0,0s0,0,0,0c0,0,0,0,0,0
			c0,0,0,0,0,0s0,0,0,0c0,0,0,0,0,0c0,0,0,0,0,0s0,0,0,0s0,0,0,0c0,0,0,0,0,0c0,0,0,0,0,0s0,0,0,0c0,0,0,0,0,0c0,0,0,0,0,0
			c0,0,0,0,0,0c0,0,0,0,0,0c0,0,0,0,0,0s0,0,0,0s0,0,0,0s0,0,0,0c0,0,0,0,0,0c0,0,0,0,0,0c0,0,0,0,0,0c0,0,0,0,0,0c0,0,0,0,0,0
			c0,0,0,0,0,0s0,0,0,0c0,0,0,0,0,0c0,0,0,0,0,0s0,0,0,0c0,0,0,0,0,0c0,0,0,0,0,0c0,0,0,0,0,0s0,0,0,0c0,0,0,0,0,0c0,0,0,0,0,0
			c0,0,0,0,0,0c0,0,0,0,0,0c0,0,0,0,0,0c0,0,0,0,0,0c0,0,0,0,0,0c0,0,0,0,0,0s0,0,0,0c0,0,0,0,0,0c0,0,0,0,0,0c0,0,0,0,0,0
			c0,0,0,0,0,0c0,0,0,0,0,0c0,0,0,0,0,0s0,0,0,0c0,0,0,0,0,0s0,0,0,0c0,0,0,0,0,0c0,0,0,0,0,0c0,0,0,0,0,0c0,0,0,0,0,0c0,0,0,0,0,0
			s0,0,0,0c0,0,0,0,0,0s0,0,0,0c0,0,0,0,0,0c0,0,0,0,0,0s0,0,0,0c0,0,0,0,0,0c0,0,0,0,0,0c0,0,0,0,0,0c0,0,0,0,0,0s0,0,0,0
			c0,0,0,0,0,0s0,0,0,0c0,0,0,0,0,0c0,0,0,0,0,0c0,0,0,0,0,0c0,0,0,0,0,0c0,0,0,0,0,0s0,0,0,0c0,0,0,0,0,0c0,0,0,0,0,0s0,0,0,0
			c0,0,0,0,0,0c0,0,0,0,0,0s0,0,0,0s0,0,0,0s0,0,0,0s0,0,0,0c0,0,0,0,0,0c0,0,0,0,0,0c0,0,0,0,0,0c0,0,0,0,0,0c0,0,0,0,0,0s0,0,0,0
			c0,0,0,0,0,0c0,0,0,0,0,0c0,0,0,0,0,0c0,0,0,0,0,0c0,0,0,0,0,0c0,0,0,0,0,0c0,0,0,0,0,0c0,0,0,0,0,0c0,0,0,0,0,0c0,0,0,0,0,0
			s0,0,0,0s0,0,0,0c0,0,0,0,0,0c0,0,0,0,0,0s0,0,0,0s0,0,0,0c0,0,0,0,0,0c0,0,0,0,0,0c0,0,0,0,0,0c0,0,0,0,0,0s0,0,0,0s0,0,0,0
			c0,0,0,0,0,0c0,0,0,0,0,0s0,0,0,0c0,0,0,0,0,0c0,0,0,0,0,0s0,0,0,0c0,0,0,0,0,0c0,0,0,0,0,0c0,0,0,0,0,0c0,0,0,0,0,0c0,0,0,0,0,0
			s0,0,0,0c0,0,0,0,0,0c0,0,0,0,0,0c0,0,0,0,0,0s0,0,0,0c0,0,0,0,0,0c0,0,0,0,0,0c0,0,0,0,0,0c0,0,0,0,0,0c0,0,0,0,0,0s0,0,0,0
			c0,0,0,0,0,0c0,0,0,0,0,0c0,0,0,0,0-0.1c0,0,0,0,0-0.1c0,0,0,0,0-0.1c0,0,0,0,0-0.1c0,0,0,0,0-0.1c0,0,0,0,0-0.1s0,0,0-0.1
			c0,0,0,0,0-0.1c0,0,0,0,0-0.1c0,0,0,0,0-0.1c0,0,0,0,0-0.1s0,0,0-0.1c0,0,0,0,0-0.1c0,0,0,0,0-0.1c0,0,0,0,0-0.1s0,0,0-0.1
			c0,0,0,0,0-0.1c0,0,0,0,0-0.1c0,0,0,0,0-0.1s0,0,0-0.1c0,0,0,0,0-0.1s0,0,0-0.1c0,0,0,0,0-0.1c0,0,0,0,0-0.1c0,0,0,0,0-0.1
			s0,0,0-0.1c0,0,0,0,0-0.1c0,0,0,0,0-0.1c0,0,0,0,0-0.1c0,0,0,0,0-0.1c0,0,0,0,0-0.1c0,0,0,0,0-0.1c0,0,0,0,0-0.1c0,0,0,0,0-0.1
			s0,0,0-0.1c0,0,0,0,0-0.1c0,0,0,0,0-0.1c0,0,0,0,0-0.1s0,0,0-0.1c0,0,0,0,0-0.1c0,0,0,0,0-0.1s0,0,0-0.1c0,0,0,0,0-0.1
			c0,0,0,0,0-0.1c0,0,0,0,0-0.1c0,0,0,0,0-0.1c0,0,0,0,0-0.1s0,0,0-0.1c0,0,0,0,0-0.1c0,0,0,0,0-0.1c0,0,0,0,0-0.1c0,0,0,0,0-0.1
			c0,0,0,0,0-0.1c0,0,0,0,0-0.1c0,0,0,0,0-0.1c0,0,0,0,0-0.1s0,0,0-0.1c0,0,0,0,0-0.1c0,0,0,0,0-0.1c0,0,0,0,0-0.1c0,0,0,0,0-0.1
			c0,0,0,0,0-0.1c0,0,0,0,0-0.1c0,0,0,0,0-0.1c0,0,0,0,0-0.1c0,0,0,0,0-0.1s0,0,0-0.1c0,0,0,0,0-0.1c0,0,0,0,0-0.1c0,0,0,0,0-0.1
			s0,0,0-0.1s0,0,0-0.1c0,0,0,0,0-0.1c0,0,0,0,0-0.1s0,0,0-0.1c0,0,0,0,0-0.1c0,0,0,0,0-0.1c0,0,0,0,0-0.1c0,0,0,0,0-0.1
			c0,0,0,0,0-0.1c0,0,0,0,0-0.1c0,0,0,0,0-0.1s0,0,0-0.1c0,0,0,0,0-0.1c0,0,0,0,0-0.1c0,0,0,0,0-0.1c0,0,0,0,0-0.1c0,0,0,0,0-0.1
			c0,0,0,0,0-0.1c0,0,0,0,0-0.1c0,0,0,0,0-0.1c0,0,0,0,0-0.1c0,0,0,0,0-0.1c0,0,0,0,0-0.1s0,0,0-0.1c0,0,0,0,0-0.1c0,0,0,0,0-0.1
			s0,0,0-0.1s0,0,0-0.1c0,0,0,0,0-0.1c0,0,0,0,0-0.1c0,0,0,0,0-0.1c0,0,0,0,0-0.1c0,0,0,0,0-0.1s0,0,0-0.1s0,0,0-0.1c0,0,0,0,0-0.1
			c0,0,0,0,0-0.1c0,0,0,0,0-0.1c0,0,0,0,0-0.1c0,0,0,0,0-0.1c0,0,0,0,0-0.1c0,0,0,0,0-0.1c0,0,0,0,0-0.1c0,0,0,0,0-0.1
			c0,0,0,0,0-0.1c0,0,0,0,0-0.1c0,0,0,0,0-0.1c0,0,0,0,0-0.1c0,0,0,0,0-0.1s0,0,0-0.1c0,0,0,0,0-0.1c0,0,0,0,0-0.1c0,0,0,0,0-0.1
			c0,0,0,0,0-0.1c0,0,0,0,0-0.1s0,0,0-0.1s0,0,0-0.1c0,0,0,0,0-0.1c0,0,0,0,0-0.1c0,0,0,0,0-0.1c0,0,0,0,0-0.1c0,0,0,0,0-0.1
			s0,0,0-0.1c0,0,0,0,0-0.1c0,0,0,0,0-0.1c0,0,0,0,0-0.1c0,0,0,0,0-0.1c0,0,0,0,0-0.1c0,0,0,0,0-0.1c0,0,0,0,0-0.1c0,0,0,0,0-0.1
			s0,0,0-0.1c0,0,0,0,0-0.1c0,0,0,0,0-0.1c0,0,0,0,0-0.1c0,0,0,0,0-0.1c0,0,0,0,0-0.1c0,0,0,0,0-0.1c0,0,0,0,0-0.1c0,0,0,0,0-0.1
			c0,0,0,0,0-0.1s0,0,0-0.1s0,0,0-0.1c0,0,0,0,0-0.1c0,0,0,0,0-0.1c0,0,0,0,0-0.1c0,0,0,0,0-0.1c0,0,0,0,0-0.1c0,0,0,0,0-0.1
			c0,0,0,0,0-0.1c0,0,0,0,0-0.1c0,0,0,0,0-0.1s0,0,0-0.1c0,0,0,0,0-0.1s0,0,0-0.1c0,0,0,0,0-0.1c0,0,0,0,0-0.1c0,0,0,0,0-0.1
			c0,0,0,0,0-0.1c0,0,0,0,0-0.1s0,0,0-0.1c0,0,0,0,0-0.1c0,0,0,0,0-0.1c0,0,0,0,0-0.1c0,0,0,0,0-0.1c0,0,0,0,0-0.1s0,0,0-0.1
			c0,0,0,0,0-0.1c0,0,0,0,0-0.1c0,0,0,0,0-0.1c0,0,0,0,0-0.1s0,0,0-0.1s0,0,0-0.1c0,0,0,0,0-0.1c0,0,0,0,0-0.1c0,0,0,0,0-0.1
			c0,0,0,0,0-0.1c0,0,0,0,0-0.1c0,0,0,0,0-0.1s0,0,0-0.1c0,0,0,0,0-0.1c0,0,0,0,0-0.1c0,0,0,0,0-0.1s0,0,0-0.1c0,0,0,0,0-0.1
			c0,0,0,0,0-0.1s0,0,0-0.1c0,0,0,0,0-0.1c0,0,0,0,0-0.1c0,0,0,0,0-0.1s0,0,0-0.1c0,0,0,0,0-0.1s0,0,0-0.1c0,0,0,0,0-0.1
			c0,0,0,0,0-0.1c0,0,0,0,0-0.1c0,0,0,0,0-0.1c0,0,0,0,0-0.1s0,0,0-0.1c0,0,0,0,0-0.1c0,0,0,0,0-0.1c0,0,0,0,0-0.1c0,0,0,0,0-0.1
			c0,0,0,0,0-0.1s0,0,0-0.1c0,0,0,0,0-0.1c0,0,0,0,0-0.1c0,0,0,0,0-0.1c0,0,0,0,0-0.1c0,0,0,0,0-0.1c0,0,0,0,0-0.1s0,0,0-0.1
			c0,0,0,0,0-0.1c0,0,0,0,0,0s0,0,0,0c0,0,0,0,0,0c0,0,0,0,0,0s0,0,0,0c0,0,0,0,0,0c0,0,0,0,0,0c0,0,0,0,0,0c0,0,0,0,0,0s0,0,0,0
			c0,0,0,0,0,0c0,0,0,0,0,0c0,0,0,0,0,0c0,0,0,0,0,0c0,0,0,0,0,0s0,0,0,0s0,0,0,0c0,0,0,0,0,0c0,0,0,0,0,0s0,0,0,0c0,0,0,0,0,0
			c0,0,0,0,0,0c0,0,0,0,0,0s0,0,0,0c0,0,0,0,0,0c0,0,0,0,0,0s0,0,0,0c0,0,0,0,0,0c0,0,0,0,0,0c0,0,0,0,0,0c0,0,0,0,0,0s0,0,0,0
			c0,0,0,0,0,0c0,0,0,0,0,0c0,0,0,0,0,0c0,0,0,0,0,0c0,0,0,0,0,0s0,0,0,0c0,0,0,0,0,0c0,0,0,0,0,0c0,0,0,0,0,0c0,0,0,0,0,0
			c0,0,0,0,0,0c0,0,0,0,0,0c0,0,0,0,0,0c0,0,0,0,0,0s0,0,0,0c0,0,0,0,0,0s0,0,0,0c0,0,0,0,0,0c0,0,0,0,0,0c0,0,0,0,0,0s0,0,0,0
			c0,0,0,0,0,0s0,0,0,0c0,0,0,0,0,0c0,0,0,0,0,0c0,0,0,0,0,0c0,0,0,0,0,0c0,0,0,0,0,0c0,0,0,0,0,0c0,0,0,0,0,0c0,0,0,0,0,0
			c0,0,0,0,0,0c0,0,0,0,0,0c0,0,0,0,0,0c0,0,0,0,0,0c0,0,0,0,0,0s0,0,0,0s0,0,0,0c0,0,0,0,0,0c0,0,0,0,0,0c0,0,0,0,0,0c0,0,0,0,0,0
			c0,0,0,0,0,0c0,0,0,0,0,0c0,0,0,0,0,0c0,0,0,0,0,0c0,0,0,0,0,0c0,0,0,0,0,0s0,0,0,0c0,0,0,0,0,0c0,0,0,0,0,0c0,0,0,0,0,0
			c0,0,0,0,0,0c0,0,0,0,0,0c0,0,0,0,0,0c0,0,0,0,0,0s0,0,0,0s0,0,0,0s0,0,0,0c0,0,0,0,0,0c0,0,0,0,0,0c0,0,0,0,0,0c0,0,0,0,0,0
			s0,0,0,0c0,0,0,0,0,0c0,0,0,0,0,0c0,0,0,0,0,0c0,0,0,0,0,0c0,0,0,0,0,0c0,0,0,0,0,0c0,0,0,0,0,0s0,0,0,0s0,0,0,0c0,0,0,0,0,0
			c0,0,0,0,0,0c0,0,0,0,0,0c0,0,0,0,0,0s0,0,0,0c0,0,0,0,0,0c0,0,0,0,0,0c0,0,0,0,0,0c0,0,0,0,0,0s0,0,0,0c0,0,0,0,0,0c0,0,0,0,0,0
			c0,0,0,0,0,0s0,0,0,0s0,0,0,0c0,0,0,0,0,0c0,0,0,0,0,0c0,0,0,0,0,0c0,0,0,0,0,0c0,0,0,0,0,0c0,0,0,0,0,0s0,0,0,0c0,0,0,0,0,0
			c0,0,0,0,0,0s0,0,0,0c0,0,0,0,0,0c0,0,0,0,0,0c0,0,0,0,0,0s0,0,0,0c0,0,0,0,0,0s0,0,0,0s0,0,0,0c0,0,0,0,0,0c0,0,0,0,0,0
			c0,0,0,0,0,0c0,0,0,0,0,0s0,0,0,0s0,0,0,0c0,0,0,0,0,0s0,0,0,0c0,0,0,0,0,0s0,0,0,0c0,0,0,0,0,0c0,0,0,0,0,0H7.7z"/>
		<path class="st6" d="M12.5,35c0,0,0,0.1,0,0.1c0,1.3-1,2.3-2.3,2.3c-1.3,0-2.3-1-2.3-2.3"/>
		<defs>
			
				<filter id="Adobe_OpacityMaskFilter_00000127042188014663814080000006548937400895151025_" filterUnits="userSpaceOnUse" x="7.7" y="35" width="5.1" height="2.6">
				<feColorMatrix  type="matrix" values="1 0 0 0 0  0 1 0 0 0  0 0 1 0 0  0 0 0 1 0"/>
			</filter>
		</defs>
		
			<mask maskUnits="userSpaceOnUse" x="7.7" y="35" width="5.1" height="2.6" id="path-5-inside-2_78_2_00000062170563279861481550000004634596934375005067_">
			<path style="fill:#FFFFFF;filter:url(#Adobe_OpacityMaskFilter_00000127042188014663814080000006548937400895151025_);" d="
				M12.5,35c0,0,0,0.1,0,0.1c0,1.3-1,2.3-2.3,2.3c-1.3,0-2.3-1-2.3-2.3"/>
		</mask>
		
			<linearGradient id="SVGID_00000050629144389098167280000015204209493022361995_" gradientUnits="userSpaceOnUse" x1="10.184" y1="13.0049" x2="10.184" y2="10.573" gradientTransform="matrix(1 0 0 -1 0 48)">
			<stop  offset="0" style="stop-color:#364E53"/>
			<stop  offset="0.345" style="stop-color:#77A1B9"/>
		</linearGradient>
		
			<path style="mask:url(#path-5-inside-2_78_2_00000062170563279861481550000004634596934375005067_);fill:url(#SVGID_00000050629144389098167280000015204209493022361995_);" d="
			M12.3,35C12.3,35,12.3,35,12.3,35c0,0.1,0,0.1,0,0.1h0.4c0,0,0,0,0-0.1c0,0,0,0,0,0H12.3z M12.3,35.1c0,1.2-1,2.1-2.1,2.1v0.4
			c1.4,0,2.5-1.1,2.5-2.5H12.3z M10.2,37.2c-1.2,0-2.1-1-2.1-2.1H7.7c0,1.4,1.1,2.5,2.5,2.5V37.2z"/>
		
			<linearGradient id="SVGID_00000140735069132702149870000014799245041026168984_" gradientUnits="userSpaceOnUse" x1="33.4385" y1="29.0597" x2="33.4385" y2="18.1164" gradientTransform="matrix(1 0 0 -1 0 48)">
			<stop  offset="0" style="stop-color:#1AF7F7"/>
			<stop  offset="0.1083" style="stop-color:#32F7F8"/>
			<stop  offset="0.5467" style="stop-color:#8FF5FB"/>
			<stop  offset="0.8536" style="stop-color:#C9F3FC"/>
			<stop  offset="1" style="stop-color:#E0F3FD"/>
		</linearGradient>
		
			<path style="fill:url(#SVGID_00000140735069132702149870000014799245041026168984_);stroke:#FFFFFF;stroke-width:0.2;stroke-miterlimit:10;" d="
			M38.1,27.8c0,1.2-0.9,2.1-2.1,2.1c-1.1,0-2.1-0.9-2.1-2.1c0-0.7,0.5-1.1,0.7-1.4c0.3-0.2,0.6-0.5,0.7-0.9c0.1-0.4,0.2-0.7,0.2-1
			c-0.1-0.5-0.3-1.6-1.3-1.7c-1,0-1.6,0.1-2,0.7c-0.2,0.4-0.1,0.9,0.1,1.3c0,0,0.5,0.5,0.5,0.9c0,0.1,0.1,0.2,0.1,0.4
			c0,0.7-0.6,1.2-1.3,1.2c-0.6,0-1.1-0.5-1.1-1.1c0-0.2,0-0.4,0.1-0.5l0.1-0.3c0.1-0.1,0.1-0.3,0.2-0.4c0,0,0.3-0.6,0.1-1.1
			C31,23.2,29.9,23,28,23l0.7-0.6l4.2-3.5h4.4c0,0,2.1,0,1.6,2.1c0,0-1,1.5-1.6,2.6c-0.5,0.9-0.1,2.3,0.4,3c0.1,0.2,0.2,0.4,0.3,0.5
			C38,27.3,38.1,27.5,38.1,27.8z"/>
		
			<linearGradient id="SVGID_00000000193815495455941750000004000198750103746703_" gradientUnits="userSpaceOnUse" x1="21.1506" y1="9.1374" x2="25.8371" y2="9.1374" gradientTransform="matrix(1 0 0 -1 0 48)">
			<stop  offset="0" style="stop-color:#7DCFFF"/>
			<stop  offset="0.7243" style="stop-color:#7DCFFF"/>
			<stop  offset="0.8436" style="stop-color:#7DCFFF"/>
			<stop  offset="1" style="stop-color:#7DCFFF"/>
		</linearGradient>
		<path style="fill:url(#SVGID_00000000193815495455941750000004000198750103746703_);" d="M25.8,37.7c0,1.3-1,2.3-2.3,2.3
			c-1.3,0-2.3-1-2.3-2.3"/>
		
			<linearGradient id="SVGID_00000176748142039928373780000018274364792658473614_" gradientUnits="userSpaceOnUse" x1="22.0918" y1="27.8679" x2="24.6757" y2="30.4573" gradientTransform="matrix(1 0 0 -1 0 48)">
			<stop  offset="0.3194" style="stop-color:#5CB7E2"/>
			<stop  offset="0.629" style="stop-color:#5AB5E1"/>
			<stop  offset="0.7405" style="stop-color:#53B0DC"/>
			<stop  offset="0.82" style="stop-color:#48A7D5"/>
			<stop  offset="0.8843" style="stop-color:#3799CA"/>
			<stop  offset="0.9387" style="stop-color:#2188BC"/>
			<stop  offset="0.9777" style="stop-color:#0C77AF"/>
			<stop  offset="0.9817" style="stop-color:#1078AE;stop-opacity:0.8903"/>
			<stop  offset="0.9855" style="stop-color:#1B7BAD;stop-opacity:0.7897"/>
			<stop  offset="0.9891" style="stop-color:#2D7FAA;stop-opacity:0.6927"/>
			<stop  offset="0.9926" style="stop-color:#4885A6;stop-opacity:0.598"/>
			<stop  offset="0.9961" style="stop-color:#698DA0;stop-opacity:0.5048"/>
			<stop  offset="0.9995" style="stop-color:#92979A;stop-opacity:0.414"/>
			<stop  offset="1" style="stop-color:#7DCFFF"/>
		</linearGradient>
		<path style="fill:url(#SVGID_00000176748142039928373780000018274364792658473614_);" d="M23.4,20.9l-2.6-2.1H26L23.4,20.9z"/>
		
			<linearGradient id="SVGID_00000129898173598300116450000016216369823306758802_" gradientUnits="userSpaceOnUse" x1="10.4684" y1="23.6269" x2="15.3297" y2="28.4986" gradientTransform="matrix(1 0 0 -1 0 48)">
			<stop  offset="0.1527" style="stop-color:#0C77AF"/>
			<stop  offset="0.3031" style="stop-color:#107AB1"/>
			<stop  offset="0.4409" style="stop-color:#1B83B8"/>
			<stop  offset="0.5738" style="stop-color:#2D92C4"/>
			<stop  offset="0.7029" style="stop-color:#47A6D5"/>
			<stop  offset="0.7849" style="stop-color:#5CB7E2"/>
			<stop  offset="0.888" style="stop-color:#5EB6E0;stop-opacity:0.7125"/>
			<stop  offset="0.9251" style="stop-color:#63B3D9;stop-opacity:0.609"/>
			<stop  offset="0.9515" style="stop-color:#6DAFCE;stop-opacity:0.5352"/>
			<stop  offset="0.9729" style="stop-color:#7BA8BD;stop-opacity:0.4755"/>
			<stop  offset="0.991" style="stop-color:#8D9FA7;stop-opacity:0.425"/>
			<stop  offset="1" style="stop-color:#7DCFFF"/>
		</linearGradient>
		<path style="fill:url(#SVGID_00000129898173598300116450000016216369823306758802_);" d="M9.9,18.8c-1.1,0-2.1,0.9-2.1,2.1
			C7.9,22,8.8,23,9.9,23l8.9,0l-5-4.1L9.9,18.8z"/>
		<path class="st13" d="M47.1,31.9v7h-4.6c-2,0-3.6-1.6-3.6-3.6v-3.4h1.4v3.3c0,1.3,1,2.3,2.3,2.3h3.2v-5.6H47.1z"/>
		<path class="st13" d="M55.9,31.9H51c-1.2,0-2.1,1-2.1,2.1v4.8h1.3v-4.7c0-0.5,0.4-1,1-1h4.7V31.9z"/>
		<path class="st13" d="M58.1,31.9h-1.3v7h1.3V31.9z"/>
		<path class="st13" d="M78.5,38.9V35c0-1.7-1.4-3.1-3.1-3.1h-7.1v7h1.4v-5.8h3.1l0,5.8h1.3l0-5.8h1.1c1.1,0,2,0.9,2,2v3.7H78.5z"/>
		<path class="st13" d="M57.4,31.2c0.5,0,0.8-0.4,0.8-0.8c0-0.5-0.4-0.8-0.8-0.8c-0.5,0-0.8,0.4-0.8,0.8
			C56.6,30.8,57,31.2,57.4,31.2z"/>
		<path class="st13" d="M59.5,37.5v1.3h5.6c1.2,0,2.1-0.9,2.1-2.1c0-1.3-1-2.3-2.3-2.3h-0.6h-2.9h-0.1c-0.3,0-0.5-0.2-0.5-0.5v-0.2
			c0-0.3,0.2-0.5,0.5-0.5h5.2V32h-5.3c-1,0-1.8,0.8-1.8,1.8v0.1c0,1,0.8,1.9,1.9,1.9h1.4h1.4h1c0.5,0,0.8,0.4,0.8,0.8
			c0,0.5-0.4,0.9-0.9,0.9L59.5,37.5"/>
		<path class="st14" d="M50.3,22.2c0.1,0,0.2,0,0.3,0c0.1,0,0.2,0.1,0.3,0.1c0.1,0,0.2,0.1,0.2,0.1c0.1,0,0.1,0.1,0.1,0.1
			c-0.2,0.3-0.3,0.7-0.4,1c-0.1,0.3-0.3,0.7-0.3,1c-0.1,0.3-0.2,0.6-0.2,0.9c0,0.3-0.1,0.5-0.1,0.7c0,0.2,0,0.4,0.1,0.6
			c0,0.1,0.1,0.2,0.2,0.3c-0.1,0.1-0.2,0.1-0.4,0.2c-0.2,0-0.3,0.1-0.4,0.1c-0.4,0-0.6-0.3-0.6-0.9c0-0.5,0.2-1.1,0.5-1.9
			c-0.2,0.4-0.3,0.7-0.6,1c-0.2,0.3-0.4,0.6-0.6,0.9c-0.2,0.2-0.4,0.5-0.7,0.6c-0.2,0.2-0.4,0.2-0.6,0.3c-0.3,0-0.5-0.2-0.7-0.4
			c-0.2-0.3-0.3-0.6-0.3-1c0-0.4,0.1-0.9,0.3-1.4s0.4-1,0.7-1.4c0.3-0.4,0.6-0.8,1-1.1c0.4-0.3,0.7-0.4,1-0.5c0.1,0,0.2,0.1,0.3,0.1
			c0.1,0.1,0.2,0.2,0.3,0.3c0.1,0.1,0.2,0.2,0.2,0.3c0.1,0.1,0.1,0.2,0.1,0.3c-0.3,0-0.7,0.2-1,0.5c-0.3,0.3-0.6,0.6-0.9,1
			c-0.3,0.4-0.5,0.8-0.7,1.2c-0.2,0.4-0.3,0.8-0.3,1.2c0,0.2,0.1,0.2,0.2,0.3c0.2,0,0.5-0.2,0.8-0.6c0.3-0.4,0.7-0.9,1.1-1.6
			c0.1-0.1,0.2-0.3,0.3-0.5c0.1-0.2,0.2-0.4,0.3-0.6c0.1-0.2,0.2-0.4,0.3-0.6C50.1,22.5,50.2,22.3,50.3,22.2z M53.7,21.2
			c0.2,0.1,0.4,0.2,0.6,0.4c0.2,0.2,0.3,0.5,0.4,0.7c-0.1,0.2-0.2,0.5-0.4,0.8c-0.2,0.3-0.4,0.6-0.6,0.9c-0.2,0.3-0.4,0.6-0.5,0.9
			c-0.1,0.3-0.2,0.5-0.3,0.7c0.1-0.1,0.3-0.3,0.4-0.5c0.2-0.2,0.3-0.4,0.5-0.5c0.2-0.2,0.3-0.3,0.4-0.5c0.1-0.2,0.2-0.3,0.3-0.3
			c0.2-0.2,0.3-0.3,0.5-0.6c0.2-0.2,0.4-0.4,0.6-0.6c0.2-0.2,0.5-0.4,0.7-0.5c0.2-0.1,0.4-0.2,0.6-0.2c0.2,0,0.4,0.1,0.5,0.2
			c0.1,0.1,0.3,0.3,0.3,0.4c0,0,0,0-0.1,0.1c-0.1,0-0.1,0.1-0.3,0.2c-0.1,0.1-0.2,0.3-0.4,0.6c-0.1,0.2-0.3,0.5-0.4,0.8
			c-0.1,0.3-0.2,0.6-0.3,0.9c-0.1,0.3-0.1,0.6-0.1,0.8c0,0.2,0,0.3,0.1,0.4c0.1,0.1,0.1,0.1,0.2,0.1c0.1,0,0.2,0,0.3-0.1
			c0.1,0,0.2-0.1,0.2-0.1c0,0,0.1,0.1,0.1,0.1c0,0,0,0.1,0,0.1c-0.1,0.1-0.1,0.1-0.2,0.2s-0.2,0.1-0.3,0.2c-0.1,0-0.2,0.1-0.3,0.1
			c-0.1,0-0.2,0-0.2,0c-0.2,0-0.4,0-0.6-0.1c-0.1-0.1-0.3-0.2-0.3-0.3c-0.1-0.1-0.1-0.2-0.2-0.4c0-0.2,0-0.3,0-0.5
			c0-0.1,0-0.2,0-0.3c0-0.1,0-0.3,0.1-0.4c0-0.2,0.1-0.4,0.2-0.6c0.1-0.2,0.2-0.5,0.3-0.8c0,0-0.1,0.1-0.3,0.2
			c-0.2,0.1-0.4,0.3-0.6,0.5c-0.4,0.4-0.7,0.7-1,1.1c-0.3,0.4-0.6,0.7-0.9,1.2c-0.2,0.2-0.3,0.5-0.5,0.6c-0.1,0.2-0.2,0.3-0.3,0.3
			c-0.2-0.1-0.3-0.2-0.4-0.4c-0.1-0.2-0.1-0.3-0.2-0.5c0-0.2,0-0.3,0.1-0.6c0-0.2,0.1-0.5,0.2-0.8c0.1-0.3,0.2-0.6,0.3-0.9
			s0.2-0.6,0.4-0.9c0.3-0.7,0.6-1.3,0.8-1.7C53.5,21.4,53.7,21.2,53.7,21.2z M58.3,26.2c0-0.1,0-0.2,0-0.3c0-0.1,0-0.3,0.1-0.4
			c0-0.2,0.1-0.4,0.1-0.7c0.1-0.3,0.1-0.6,0.2-0.9c0-0.1,0.1-0.2,0.1-0.4c0.1-0.2,0.1-0.4,0.2-0.6c0.1-0.2,0.2-0.4,0.3-0.6
			c0.1-0.2,0.3-0.3,0.5-0.4c0.1,0,0.3,0.1,0.5,0.3c0.2,0.1,0.4,0.3,0.6,0.5c-0.2,0.2-0.3,0.4-0.5,0.6c-0.1,0.2-0.2,0.4-0.3,0.6
			c-0.1,0.2-0.2,0.5-0.3,0.7c-0.1,0.2-0.2,0.5-0.3,0.8c-0.1,0.2-0.2,0.5-0.2,0.7c-0.1,0.2-0.1,0.4-0.1,0.6c0,0.1,0,0.2,0,0.3
			c0,0.1,0,0.1-0.1,0.1c0,0-0.1,0-0.2-0.1c-0.1,0-0.2-0.1-0.3-0.2c-0.1-0.1-0.2-0.2-0.3-0.3C58.3,26.5,58.3,26.4,58.3,26.2z
			 M60.6,21c0,0,0-0.1,0-0.2c0,0-0.1-0.1-0.1-0.2c0-0.1,0-0.2,0-0.2c0-0.1,0-0.2,0-0.3c0-0.1,0.1-0.3,0.1-0.4c0-0.1,0.1-0.3,0.1-0.4
			c0-0.2,0.1-0.3,0.1-0.4c0.1,0,0.2,0,0.3,0.1c0.1,0,0.3,0.1,0.4,0.2c0.1,0.1,0.3,0.2,0.4,0.3c0.1,0.1,0.2,0.2,0.3,0.3
			c-0.1,0.1-0.2,0.2-0.3,0.4c-0.1,0.2-0.3,0.3-0.4,0.5c-0.1,0.2-0.3,0.3-0.4,0.5c-0.1,0.2-0.2,0.3-0.2,0.3c-0.1,0-0.2-0.1-0.3-0.1
			C60.6,21.1,60.6,21.1,60.6,21z M60.2,31c-0.1,0-0.2-0.2-0.2-0.4c0-0.1-0.1-0.2-0.1-0.4c0-0.1,0-0.3,0-0.5c0-0.2,0-0.4,0.1-0.7
			c0.1-0.3,0.1-0.6,0.2-1c0.1-0.4,0.2-0.8,0.4-1.2c0.1-0.4,0.3-0.9,0.5-1.3c0.2-0.6,0.4-1,0.6-1.4c0.2-0.4,0.3-0.8,0.4-1.1
			c0.1-0.3,0.2-0.5,0.3-0.7c0.1-0.2,0.1-0.4,0.2-0.5c0-0.1,0.1-0.2,0.1-0.3c0.1-0.1,0.1-0.3,0.2-0.4c0.1-0.1,0.2-0.3,0.3-0.4
			c0.1-0.1,0.2-0.2,0.2-0.3c0.3,0,0.5,0.1,0.8,0.2s0.4,0.2,0.5,0.3c-0.1,0.1-0.2,0.3-0.4,0.5c-0.1,0.2-0.3,0.5-0.4,0.7
			c-0.1,0.3-0.3,0.5-0.4,0.8s-0.2,0.5-0.3,0.7c0.1-0.1,0.2-0.3,0.3-0.4c0.1-0.2,0.3-0.4,0.6-0.7c0.3-0.3,0.6-0.5,0.8-0.7
			c0.3-0.2,0.5-0.3,0.7-0.3c0.3,0,0.6,0.1,0.7,0.3c0.2,0.2,0.3,0.4,0.3,0.6c0,0.6-0.1,1.1-0.3,1.7c-0.2,0.6-0.5,1.1-0.8,1.5
			c-0.1,0.2-0.3,0.3-0.5,0.5s-0.4,0.3-0.6,0.4c-0.2,0.1-0.4,0.2-0.6,0.3s-0.4,0.1-0.5,0.1c-0.1,0-0.3,0-0.4-0.1
			c-0.1-0.1-0.2-0.1-0.2-0.2c0.3-0.2,0.6-0.4,0.9-0.8c0.3-0.3,0.6-0.7,0.8-1.1c0.3-0.4,0.5-0.9,0.7-1.4c0.2-0.5,0.3-1,0.4-1.5
			c-0.3,0.2-0.6,0.3-0.8,0.5c-0.2,0.2-0.5,0.4-0.7,0.7c-0.3,0.4-0.5,0.6-0.7,0.9s-0.3,0.4-0.4,0.6c-0.1,0.2-0.2,0.3-0.3,0.4
			c-0.1,0.1-0.1,0.3-0.2,0.5c-0.1,0.3-0.2,0.6-0.4,1c-0.1,0.4-0.3,0.9-0.5,1.4c-0.2,0.5-0.3,1.1-0.5,1.7c-0.2,0.6-0.3,1.2-0.4,1.8
			c-0.1,0-0.2-0.1-0.2-0.2C60.4,31.1,60.4,31.1,60.2,31C60.3,31,60.3,31,60.2,31z M70.4,26.7c-0.2-0.1-0.3-0.3-0.3-0.5
			c0-0.2-0.1-0.4-0.1-0.5c0-0.2,0-0.3,0.1-0.4c0,0-0.1,0.1-0.2,0.2s-0.2,0.3-0.4,0.5c-0.1,0.2-0.3,0.3-0.4,0.5
			c-0.1,0.2-0.2,0.3-0.3,0.4c-0.1,0.1-0.2,0.2-0.3,0.3c-0.1,0.1-0.2,0.1-0.2,0.1c-0.1,0-0.3,0-0.4-0.1c-0.1,0-0.3-0.1-0.4-0.2
			c-0.1-0.1-0.2-0.2-0.3-0.3c-0.1-0.1-0.1-0.2-0.2-0.4c0-0.2,0-0.4,0-0.6c0-0.1,0-0.3,0.1-0.5c0.1-0.3,0.2-0.6,0.3-1
			c0.1-0.4,0.3-0.8,0.5-1.1c0.2-0.4,0.4-0.7,0.6-1c0.2-0.3,0.5-0.6,0.7-0.8c0.1,0,0.2,0,0.3,0c0.1,0,0.2,0,0.3,0.1
			c0.1,0,0.2,0.1,0.3,0.1c0.1,0,0.2,0.1,0.2,0.2c-0.1,0.1-0.3,0.3-0.6,0.8c-0.3,0.5-0.6,1.1-1,2c0,0.1-0.1,0.2-0.1,0.4
			s-0.1,0.3-0.2,0.5s-0.1,0.4-0.1,0.5c0,0.2,0,0.3,0,0.4c0,0.1,0,0.1,0,0.1c0,0,0,0.1,0.1,0.1c0.1,0,0.3-0.2,0.5-0.4
			c0.2-0.2,0.4-0.5,0.8-1c0.1-0.1,0.2-0.2,0.3-0.4c0.1-0.1,0.2-0.3,0.3-0.5c0.1-0.2,0.2-0.3,0.3-0.5c0.1-0.2,0.2-0.4,0.3-0.5
			c0-0.1,0.1-0.2,0.1-0.3c0.1-0.1,0.1-0.3,0.2-0.4c0.1-0.1,0.2-0.3,0.3-0.4c0.1-0.2,0.2-0.3,0.4-0.4c0.1,0,0.2,0,0.3,0
			c0.1,0,0.2,0.1,0.3,0.1c0.1,0,0.2,0.1,0.3,0.1c0.1,0,0.1,0.1,0.2,0.1c-0.1,0.4-0.3,0.7-0.5,1c-0.2,0.3-0.3,0.7-0.5,1
			c-0.2,0.3-0.3,0.7-0.4,1c-0.1,0.3-0.2,0.6-0.2,1c0,0.2,0,0.3,0,0.4c0,0.1,0.1,0.2,0.1,0.3c0,0.1,0.1,0.1,0.1,0.2
			c0,0.1,0,0.1,0,0.1c0,0,0,0,0,0c0,0,0,0,0,0c-0.1,0-0.1,0-0.2,0s-0.2-0.1-0.3-0.1c-0.1,0-0.2-0.1-0.3-0.1
			C70.6,26.9,70.5,26.8,70.4,26.7z M72.7,26.8c0-0.2,0.1-0.5,0.2-0.9c0.1-0.4,0.2-0.8,0.4-1.2c0.1-0.4,0.3-0.9,0.4-1.3
			s0.3-0.8,0.4-1.2c0.1-0.2,0.2-0.4,0.3-0.6c0.1-0.1,0.2-0.3,0.3-0.4c0.1,0,0.2,0,0.3,0.1c0.1,0,0.2,0.1,0.3,0.1s0.2,0.1,0.3,0.2
			c0.1,0.1,0.2,0.1,0.2,0.2c-0.2,0.3-0.4,0.5-0.6,0.9C75.2,23,75,23.4,74.8,24c0.4-0.4,0.8-0.8,1.1-1.1c0.3-0.4,0.6-0.7,0.9-1.2
			c0,0,0.1-0.1,0.3-0.1c0.1,0,0.2,0,0.3,0.1c0.1,0,0.2,0.1,0.2,0.1c-0.1,0.4-0.2,0.8-0.2,1.1c0,0.4,0.1,0.6,0.2,0.8
			c0,0-0.1,0.1-0.2,0.3c-0.1,0.1-0.2,0.3-0.3,0.4c-0.2-0.1-0.4-0.3-0.6-0.5c-0.2-0.2-0.3-0.4-0.4-0.6c-0.4,0.3-0.7,0.5-1,0.8
			c-0.3,0.2-0.5,0.5-0.7,0.8c-0.2,0.3-0.3,0.7-0.5,1.1c-0.1,0.4-0.3,0.9-0.4,1.4c-0.1,0-0.2,0-0.3-0.1c-0.1,0-0.2-0.1-0.3-0.2
			C73.1,27.1,73,27,72.9,27C72.8,26.9,72.8,26.8,72.7,26.8z"/>
		<path class="st13" d="M35.1,33.4l0.7-1.4c-0.3-0.1-0.5-0.1-0.6-0.1c-1.4,0-2.7,0-4.1,0c-1.1,0-2,0.9-2,2v3.2c0,1,0.8,1.8,1.8,1.8
			h4.6c1,0,1.8-0.8,1.8-1.8v-3c0-0.6-0.2-1.1-0.6-1.5c-0.2-0.2-0.3-0.3-0.4-0.3l-0.7,1.5c0.3,0.2,0.3,0.4,0.3,0.7v2
			c0,0.6-0.5,1.1-1.1,1.1h-3c-0.7,0-1.2-0.5-1.2-1.2v-1.8c0-0.7,0.6-1.3,1.3-1.3h2.8C34.8,33.3,34.9,33.3,35.1,33.4z"/>
	</g>
</g>
</svg>
